<svg width="244" height="200" viewBox="0 0 244 200" fill="none" xmlns="http://www.w3.org/2000/svg">
<path d="M41.509 58.8916L41.5076 58.8915C40.3442 58.7901 39.5207 57.8167 38.9184 56.6598C38.3008 55.4734 37.8226 53.917 37.4228 52.3236C37.1306 51.159 36.8745 49.9492 36.6368 48.8265C36.5487 48.4109 36.4633 48.0071 36.3794 47.622C36.0934 46.3086 35.8323 45.2446 35.5608 44.5901C33.439 44.0082 30.8531 43.989 28.3619 44.522C25.7838 45.0736 23.3567 46.2059 21.6728 47.8565L21.6661 47.863L21.6592 47.8693C16.571 52.498 11.094 56.5433 5.22865 60.0173C3.37252 67.972 1.8885 75.9995 0.788585 84.1115C2.54533 84.4193 3.85819 85.371 4.70585 86.9382C6.62029 87.5295 8.87278 87.0035 11.2837 86.2256C11.7539 86.0739 12.2343 85.9114 12.7165 85.7482C13.475 85.4915 14.2378 85.2333 14.9719 85.0138C16.1843 84.6513 17.392 84.3698 18.5327 84.3356M41.509 58.8916L18.5476 84.8354M41.509 58.8916C42.7436 58.9957 43.7151 58.4317 44.457 57.5607C45.1863 56.7046 45.721 55.5258 46.1305 54.2952C46.5425 53.0574 46.8411 51.725 47.0777 50.5336C47.1727 50.0552 47.2566 49.6055 47.3337 49.1929C47.4299 48.6774 47.5154 48.2199 47.5979 47.8368C47.6678 47.8226 47.7576 47.8095 47.8696 47.7988C48.1636 47.7705 48.558 47.7627 49.0356 47.77C49.7648 47.7811 50.6469 47.8262 51.5962 47.8747C51.8904 47.8897 52.1911 47.9051 52.4957 47.9199C53.7734 47.982 55.1121 48.0333 56.277 48.0007C57.4149 47.9688 58.4802 47.8567 59.152 47.5389C59.5384 47.3562 59.8616 47.0341 60.1388 46.6702C60.4193 46.302 60.68 45.8542 60.929 45.3744C61.1788 44.8933 61.4255 44.3631 61.6735 43.827L61.7212 43.7238C61.9552 43.2178 62.1915 42.7067 62.44 42.2102C62.9757 41.14 63.5412 40.1948 64.1944 39.5762C64.8263 38.9778 65.5047 38.7134 66.3327 38.9098C66.5889 38.9711 66.737 39.1384 66.8404 39.4585C66.9329 39.745 66.9623 40.0684 66.9936 40.414C67.0007 40.4923 67.0079 40.5717 67.0159 40.6521L67.0168 40.6597M41.509 58.8916L67.0168 40.6597M18.5327 84.3356L18.5476 84.8354M18.5327 84.3356C18.5323 84.3356 18.5319 84.3356 18.5315 84.3356L18.5476 84.8354M18.5327 84.3356C18.7306 84.3294 19.0574 84.3631 19.439 84.4144C19.8358 84.4678 20.3325 84.5462 20.8922 84.6421C22.0123 84.834 23.3971 85.0982 24.7639 85.3785C26.1304 85.6589 27.4835 85.9564 28.5395 86.2153C29.0668 86.3446 29.5253 86.4655 29.8763 86.5708C30.0513 86.6234 30.2057 86.6739 30.3311 86.7213C30.441 86.7628 30.5773 86.8193 30.6796 86.894L30.6823 86.896C31.0016 87.1326 31.1972 87.4769 31.3184 87.843C31.4397 88.2092 31.4984 88.6324 31.5209 89.0771C31.5657 89.9647 31.4692 91.0338 31.3502 92.1008C31.3181 92.3884 31.2844 92.6759 31.2509 92.9612C31.1582 93.7513 31.0675 94.525 31.0185 95.2401C30.9839 95.7462 30.9726 96.1984 30.9918 96.5859M18.5476 84.8354C19.7445 84.7967 29.7139 86.8079 30.3847 87.2978C31.3295 87.9979 31.0413 90.4553 30.7556 92.8919C30.5735 94.444 30.3925 95.9876 30.5317 97.0633C30.6892 96.8939 30.8425 96.7348 30.9918 96.5859M30.9918 96.5859C31.9036 95.6765 32.6684 95.1445 33.3528 94.9348C33.7966 94.7987 34.2102 94.7968 34.5959 94.9164C34.9735 95.0334 35.2891 95.256 35.5609 95.5119C35.8311 95.7662 36.0773 96.0722 36.3102 96.3788C36.3986 96.4952 36.4837 96.6097 36.5684 96.7237C36.7161 96.9224 36.8625 97.1194 37.0228 97.3215C37.5174 97.9447 38.0516 98.4906 38.7562 98.8052M30.9918 96.5859C31.0037 96.8252 31.0272 97.0398 31.0641 97.2273C34.0184 94.1314 34.9543 95.3904 36.1596 97.0119C36.781 97.8479 37.4741 98.7802 38.5522 99.2618M89.8329 100.254L89.3329 100.352V100.254H89.8329ZM89.8329 100.254V100.764L89.9291 100.745L89.8329 100.254ZM87.2024 96.3868H86.6972L86.7077 96.3147L87.2024 96.3868ZM87.2024 96.3868L87.1296 96.8868H87.2024V96.3868ZM38.7562 98.8052L49.1168 103.556M38.7562 98.8052L38.5522 99.2618M38.7562 98.8052C38.7559 98.8051 38.7556 98.805 38.7554 98.8049L38.5522 99.2618M38.5522 99.2618C39.5621 99.7107 40.8475 99.6377 42.1024 99.5664C43.8384 99.4678 45.516 99.3724 46.3252 100.667C46.6585 101.201 46.7544 101.735 46.8377 102.198C47.008 103.147 47.1254 103.801 49.1168 103.556M49.1168 103.556C49.3008 103.533 49.5009 103.503 49.7185 103.465M49.1168 103.556C49.1662 103.449 49.2188 103.342 49.2745 103.235L49.7185 103.465M49.7185 103.465C49.6229 103.649 49.5373 103.832 49.461 104.013C49.5719 103.997 49.6867 103.978 49.8055 103.957L49.7185 103.465ZM73.3926 96.3868C73.401 96.5416 73.4074 96.7088 73.4116 96.8868H73.3926V96.3868ZM73.3926 96.3868H73.8933C73.8928 96.3776 73.8923 96.3686 73.8918 96.3595L73.3926 96.3868ZM67.0168 40.6597C67.0777 41.1851 67.0764 42.3075 67.0426 43.749C67.0173 44.8288 66.9748 46.0619 66.9317 47.3117C66.9178 47.7134 66.9039 48.1168 66.8905 48.5173C66.8354 50.1602 66.7887 51.7566 66.7897 52.9743C66.7902 53.5817 66.8026 54.1059 66.8332 54.4986C66.8484 54.6935 66.8691 54.8702 66.8989 55.014C66.9137 55.0855 66.9333 55.1619 66.9613 55.234C66.9849 55.2949 67.0347 55.4081 67.1378 55.5018L67.1414 55.5049M67.0168 40.6597L67.1414 55.5049M67.1414 55.5049C67.2475 55.5995 67.3661 55.6286 67.4056 55.6379C67.4623 55.6513 67.518 55.6575 67.5629 55.661C67.6538 55.6682 67.7605 55.6683 67.8663 55.6662C67.9876 55.6638 68.1385 55.6576 68.2975 55.651C68.4091 55.6464 68.5246 55.6416 68.6366 55.6378C68.9224 55.6283 69.2175 55.6241 69.4879 55.6382C69.765 55.6528 69.9833 55.6853 70.129 55.7344L70.1318 55.7354M67.1414 55.5049L70.1318 55.7354M70.1318 55.7354C70.4986 55.8565 70.7009 56.0437 70.9982 56.3189C71.0895 56.4034 71.1898 56.4963 71.3066 56.598C71.798 57.0262 72.4317 57.436 73.6134 57.5994L73.6146 57.5996M70.1318 55.7354L73.6146 57.5996M73.6146 57.5996C77.0491 58.0665 80.7857 57.7363 84.478 57.3599C84.7563 57.3315 85.0343 57.3029 85.312 57.2743C88.7423 56.921 92.1174 56.5735 95.2565 56.7908L95.4244 56.8024M73.6146 57.5996L95.4244 56.8024M95.4244 56.8024L95.5651 56.7101M95.4244 56.8024L95.5651 56.7101M95.5651 56.7101L119.897 40.7625L120.064 40.6527M95.5651 56.7101L120.064 40.6527M120.064 40.6527L120.11 40.4578M120.064 40.6527L120.11 40.4578M120.11 40.4578C120.498 38.792 120.869 37.5298 121.221 36.5938M120.11 40.4578L121.221 36.5938M137.325 36.1099L137.319 36.1177C137.264 36.1919 137.198 36.244 137.159 36.2729C137.113 36.3069 137.062 36.3388 137.012 36.3679C136.912 36.4263 136.788 36.4895 136.648 36.5554C136.367 36.6878 135.992 36.8459 135.558 37.0179C134.689 37.3627 133.558 37.7734 132.411 38.162C131.264 38.5506 130.093 38.9197 129.144 39.1803C128.67 39.3103 128.244 39.4153 127.901 39.4819C127.729 39.5152 127.571 39.5403 127.434 39.5535C127.308 39.5657 127.158 39.5724 127.022 39.5455L137.325 36.1099ZM137.325 36.1099C137.728 35.5451 137.759 34.8726 137.609 34.2457C137.459 33.6217 137.122 32.9936 136.709 32.4344C136.293 31.872 135.784 31.3547 135.261 30.9549C134.748 30.5621 134.182 30.2512 133.652 30.157L133.65 30.1568M137.325 36.1099L133.65 30.1568M133.65 30.1568C133.217 30.081 132.614 30.103 132.031 30.128C131.976 30.1304 131.921 30.1328 131.865 30.1352C131.305 30.1597 130.732 30.1847 130.205 30.1596C129.611 30.1313 129.161 30.0413 128.884 29.8778C128.756 29.8023 128.679 29.7193 128.634 29.6293C128.589 29.5415 128.557 29.4112 128.575 29.2097C128.577 29.2041 128.58 29.1951 128.584 29.1823C128.597 29.1441 128.618 29.0902 128.648 29.0198C128.706 28.8797 128.791 28.6948 128.897 28.4773C129.107 28.0434 129.388 27.4983 129.68 26.9581C129.972 26.4176 130.271 25.8879 130.516 25.4839C130.639 25.2811 130.744 25.1161 130.826 24.999C130.85 24.9641 130.871 24.9358 130.888 24.9135C130.911 24.9114 130.944 24.9094 130.99 24.9091C131.13 24.9083 131.32 24.9225 131.566 24.9483C131.718 24.9642 131.891 24.9846 132.079 25.0068C132.474 25.0534 132.936 25.1079 133.419 25.1464C134.856 25.2608 136.674 25.2552 138.252 24.4994L138.036 24.0485L138.252 24.4994C138.328 24.4631 138.429 24.3972 138.523 24.3339C138.628 24.2627 138.762 24.1691 138.918 24.0574C139.231 23.8336 139.644 23.5304 140.122 23.1746C141.078 22.4627 142.302 21.535 143.524 20.5986C144.745 19.6623 145.967 18.7161 146.918 17.9672C147.393 17.5929 147.802 17.2668 148.111 17.0153C148.406 16.7752 148.64 16.5784 148.736 16.4775L148.739 16.4739M133.65 30.1568L148.739 16.4739M148.739 16.4739C149.349 15.821 149.846 15.2219 150.192 14.6521C150.54 14.0806 150.754 13.5073 150.753 12.9136C150.751 11.7068 149.871 10.6856 148.35 9.59025L148.349 9.58976M148.739 16.4739L148.349 9.58976M148.349 9.58976C147.885 9.25662 147.253 9.09987 146.792 9.01038C146.613 8.97579 146.442 8.94825 146.306 8.92626C146.292 8.92407 146.279 8.92193 146.266 8.91985C146.271 8.7163 146.291 8.43179 146.325 8.08517C146.394 7.38161 146.517 6.45935 146.66 5.5256C146.803 4.59225 146.966 3.65503 147.115 2.92207C147.189 2.55482 147.259 2.24474 147.32 2.01426C147.351 1.89857 147.378 1.80945 147.4 1.74611C147.412 1.71401 147.419 1.6954 147.423 1.68675C147.502 1.58954 147.701 1.46111 148.118 1.36469C148.538 1.26765 149.096 1.22236 149.765 1.22687C151.099 1.23586 152.787 1.44169 154.516 1.74742C156.24 2.05245 157.986 2.45357 159.427 2.84584C160.886 3.24277 161.985 3.61806 162.449 3.86294C162.989 4.14903 163.339 4.57324 163.756 5.10564L163.806 5.16893C164.201 5.67466 164.662 6.26369 165.384 6.72854C165.703 6.93585 166.152 7.01568 166.6 7.04676C167.07 7.07935 167.63 7.06267 168.236 7.01545C169.447 6.9209 170.9 6.6989 172.295 6.46225C172.904 6.35895 173.499 6.25352 174.061 6.15389C174.799 6.02291 175.482 5.90196 176.066 5.80905C176.578 5.72756 176.993 5.67135 177.286 5.64999C177.399 5.64179 177.482 5.63967 177.54 5.64119C177.592 5.68791 177.645 5.72958 177.687 5.76202C177.788 5.84022 177.917 5.93284 178.059 6.03342C178.16 6.10488 178.268 6.18077 178.383 6.26071C178.598 6.41121 178.833 6.57607 179.078 6.75285C179.45 7.02157 179.827 7.30525 180.145 7.57753C180.472 7.85749 180.703 8.09599 180.815 8.27225L180.816 8.27292M148.349 9.58976L180.816 8.27292M180.816 8.27292C182.468 10.8482 183.976 11.8834 185.714 12.2584C186.555 12.4401 187.428 12.4613 188.34 12.4598C188.515 12.4595 188.692 12.4584 188.872 12.4573C189.559 12.4529 190.279 12.4482 191.066 12.49C191.5 13.2835 191.846 14.1105 192.208 14.9754C192.381 15.3889 192.558 15.811 192.749 16.2423C193.37 17.6399 194.126 19.068 195.375 20.3608L195.376 20.3614M180.816 8.27292L195.376 20.3614M195.376 20.3614C196.289 21.3024 196.85 21.6405 197.417 21.7745C197.584 21.8141 197.772 21.8373 197.929 21.8567C197.995 21.8648 198.056 21.8723 198.107 21.8801C198.308 21.9103 198.531 21.9594 198.826 22.0844C200.472 22.7984 201.459 23.9003 201.948 25.1605C202.442 26.4319 202.444 27.9059 202.038 29.3681C201.221 32.3111 198.796 35.0565 195.784 35.8111C195.25 35.9449 194.623 35.9589 193.926 35.9469C193.794 35.9446 193.659 35.9413 193.523 35.938C192.962 35.9244 192.368 35.9101 191.819 35.9593C191.129 36.0209 190.427 36.1868 189.857 36.6359C189.274 37.096 188.897 37.7982 188.756 38.7908C188.659 39.4677 188.777 40.0323 189.056 40.5105C189.326 40.9748 189.728 41.3222 190.137 41.6093C190.404 41.7961 190.706 41.9786 190.993 42.1515C191.133 42.2362 191.27 42.3186 191.397 42.3981C191.806 42.6545 192.16 42.908 192.432 43.2072L192.432 43.2074M195.376 20.3614L192.432 43.2074M192.432 43.2074C193.428 44.3037 193.838 45.2345 193.948 46.0238C194.058 46.8133 193.877 47.522 193.579 48.193C193.43 48.5303 193.254 48.8527 193.073 49.1712C193.032 49.2422 192.991 49.3137 192.95 49.3855C192.811 49.6278 192.67 49.8726 192.551 50.1058C192.252 50.6904 191.98 51.3952 192.275 52.1013L192.276 52.1033C192.786 53.3106 193.739 53.953 194.856 54.2483C195.95 54.5373 197.222 54.5016 198.453 54.3669C199.262 54.2782 200.095 54.1409 200.868 54.0135C201.263 53.9483 201.642 53.8858 201.994 53.8337C202.526 53.755 203.002 53.6987 203.411 53.6835C203.825 53.6681 204.131 53.6969 204.34 53.7637L192.432 43.2074ZM226.735 166.271C226.734 166.272 226.734 166.271 226.736 166.27C226.743 166.264 226.778 166.234 226.844 166.154C226.916 166.069 227.004 165.953 227.107 165.804C227.312 165.508 227.562 165.108 227.841 164.634C228.398 163.686 229.058 162.466 229.689 161.231C230.321 159.996 230.922 158.754 231.363 157.766C231.584 157.271 231.762 156.845 231.883 156.518C231.944 156.354 231.989 156.221 232.017 156.121C232.043 156.027 232.047 155.989 232.048 155.989C232.048 155.989 232.048 155.989 232.048 155.99C232.039 155.634 231.812 155.25 231.314 154.828C230.822 154.41 230.148 154.025 229.428 153.66C229.138 153.513 228.831 153.364 228.531 153.219C228.12 153.02 227.721 152.827 227.395 152.651C227.104 152.495 226.832 152.332 226.618 152.163C226.423 152.008 226.188 151.781 226.116 151.473C225.847 150.322 225.974 148.809 226.328 147.185C226.685 145.547 227.286 143.741 228.017 141.976C229.47 138.466 231.474 135.028 233.173 133.389L237.813 127.379C238.248 128.197 238.736 129.113 238.401 130.113C238.227 130.633 237.009 131.396 235.792 132.16C234.897 132.722 234.001 133.284 233.521 133.748C230.273 136.881 225.63 147.195 226.603 151.359C226.701 151.779 227.632 152.229 228.729 152.759C230.427 153.58 232.524 154.593 232.548 155.988M226.735 166.271L227.011 166.688M226.735 166.271C226.364 166.517 226.057 166.594 225.792 166.583C225.523 166.573 225.243 166.469 224.933 166.261C224.311 165.843 223.697 165.097 222.96 164.202L222.877 164.101C221.405 162.312 219.484 160.016 216.411 160.338M226.735 166.271C226.735 166.271 226.735 166.271 226.735 166.271L227.011 166.688M227.011 166.688C225.292 167.826 224.058 166.325 222.603 164.555C221.074 162.695 219.3 160.538 216.463 160.835M227.011 166.688C227.945 166.069 232.561 156.929 232.548 155.988M216.463 160.835L216.412 160.338C216.412 160.338 216.412 160.338 216.411 160.338M216.463 160.835C215.582 160.925 208.585 167.474 207.861 168.545L216.411 160.338M216.463 160.835L216.411 160.338C216.411 160.338 216.411 160.338 216.411 160.338M232.548 155.988L232.048 155.995C232.048 155.995 232.048 155.996 232.048 155.996L232.548 155.988ZM121.221 36.5938C121.576 35.6502 121.901 35.0721 122.182 34.746M121.221 36.5938L122.182 34.746M122.182 34.746C122.456 34.4289 122.633 34.4081 122.729 34.4195M122.182 34.746L122.729 34.4195M122.729 34.4195C122.868 34.4359 123.073 34.5444 123.35 34.8426M122.729 34.4195L123.35 34.8426M123.35 34.8426C123.617 35.1303 123.891 35.5293 124.176 35.9935M123.35 34.8426L124.176 35.9935M124.176 35.9935C124.353 36.2815 124.523 36.5758 124.696 36.874M124.176 35.9935L124.696 36.874M124.696 36.874C124.804 37.0611 124.914 37.2496 125.026 37.4392M124.696 36.874L125.026 37.4392M125.026 37.4392C125.308 37.9149 125.602 38.3844 125.906 38.7522M125.026 37.4392L125.906 38.7522M125.906 38.7522C126.193 39.1012 126.564 39.4546 127.022 39.5455L125.906 38.7522ZM87.065 100.797L86.5448 100.899L86.6213 100.375L87.1414 100.273L87.065 100.797ZM51.6194 121.987C51.6818 121.773 51.7139 121.56 51.7219 121.349C51.4987 121.486 51.3184 121.585 51.1874 121.644C51.1842 121.661 51.1807 121.678 51.1771 121.696C51.2366 121.709 51.3243 121.745 51.3986 121.831L51.0206 122.158L51.0763 122.185C51.1742 122.198 51.3644 122.124 51.6194 121.987ZM56.8662 117.382C56.8635 117.385 56.8587 117.391 56.8512 117.399C56.8449 117.412 56.8385 117.426 56.832 117.439L57.2811 117.659L56.8323 117.439C56.8462 117.41 56.8601 117.39 56.8662 117.382ZM90.3329 119.122C90.153 119.114 89.9987 119.104 89.872 119.094L89.8329 119.593H90.3329V119.122ZM0.659984 84.5967C0.518772 84.573 0.374302 84.5537 0.226562 84.5388C0.248648 84.3735 0.270893 84.2083 0.293297 84.043L0.659984 84.5967ZM130.934 24.8576C130.934 24.858 130.933 24.8595 130.93 24.8618C130.933 24.8584 130.935 24.8571 130.934 24.8576ZM177.407 5.49978L177.409 5.50225C177.408 5.50143 177.408 5.50061 177.407 5.49978ZM117.317 142.533C118.273 142.245 120.207 141.643 122.028 141.003C123.084 140.632 124.113 140.244 124.893 139.895C125.281 139.721 125.623 139.55 125.88 139.389C126.008 139.309 126.13 139.222 126.229 139.129C126.314 139.048 126.448 138.903 126.491 138.699C126.576 138.296 126.391 137.903 126.226 137.619C126.07 137.35 125.856 137.057 125.647 136.77C125.617 136.73 125.587 136.689 125.558 136.648C125.054 135.956 124.606 135.286 124.525 134.63C124.432 133.837 124.584 133.096 124.775 132.282C124.788 132.227 124.801 132.172 124.814 132.116C124.992 131.366 125.187 130.54 125.146 129.652L125.146 129.649C125.139 129.507 125.096 129.264 125.041 128.987C124.982 128.695 124.901 128.325 124.805 127.906C124.613 127.067 124.358 126.021 124.096 124.989C123.834 123.958 123.564 122.937 123.341 122.151C123.23 121.758 123.13 121.419 123.048 121.165C123.007 121.038 122.969 120.927 122.935 120.839C122.91 120.776 122.864 120.655 122.795 120.566C122.795 120.566 122.795 120.565 122.795 120.565L122.398 120.869L117.317 142.533Z" fill="#96E2B2" stroke="#007DC0"/>
</svg>
