<svg width="182" height="200" viewBox="0 0 182 200" fill="none" xmlns="http://www.w3.org/2000/svg">
<path d="M36.2193 6.10414L36.0178 5.78274C34.6171 3.54845 33.0862 2.29658 31.2935 1.68432C29.4827 1.06586 27.3427 1.07796 24.6826 1.49874L24.4022 1.54309L24.2204 1.32508C24.1859 1.28369 24.1159 1.23301 23.9513 1.21414C23.7812 1.19464 23.5476 1.21508 23.2533 1.2884C22.6661 1.4347 21.9481 1.76301 21.2404 2.18142C20.5363 2.5977 19.8725 3.08532 19.3932 3.52786C19.1526 3.75 18.9704 3.94985 18.8532 4.114C18.8301 4.14635 18.8112 4.17502 18.7957 4.20012C20.3097 5.68642 21.5806 7.34239 22.5951 9.16769L22.6259 9.22293L22.6418 9.28408L31.4665 43.0264L31.8309 43.2353C33.118 43.0486 34.166 43.0301 34.9989 43.1632C35.8695 43.3024 36.5436 43.6141 36.9905 44.1133C37.9022 45.1316 37.6375 46.6195 36.9981 47.9893C36.3374 49.4049 35.1747 50.9333 33.868 52.2705C32.5762 53.5925 31.1108 54.7615 29.791 55.4661C29.1228 56.0292 28.343 56.8395 27.8309 57.7023C27.3388 58.5312 27.1528 59.3015 27.3846 59.9406C36.1443 64.1954 41.268 69.6844 47.0862 77.2243C49.565 77.9172 51.5249 78.9629 52.9288 80.3875C54.3695 81.8494 55.1962 83.6818 55.4175 85.8598C56.2022 92.7795 57.8099 99.3762 60.2268 105.625L60.2777 105.757L60.2522 105.896C60.2251 106.044 60.1497 106.156 60.0934 106.225C60.033 106.299 59.9615 106.365 59.8917 106.421C59.7518 106.534 59.5705 106.649 59.3673 106.763C58.9576 106.993 58.3947 107.256 57.7366 107.537C56.4165 108.101 54.6629 108.758 52.8672 109.391C51.0697 110.024 49.2222 110.637 47.7109 111.112C46.2141 111.583 45.013 111.931 44.5301 112.021L44.0906 112.104L43.9599 111.676C43.5327 110.278 42.7834 109.591 41.7479 109.424C40.643 109.246 39.0924 109.638 37.0478 110.745L36.6458 110.963L36.3931 110.582C35.5542 109.317 34.7372 108.668 33.9697 108.48C33.2292 108.298 32.4047 108.515 31.4601 109.298L31.4456 109.31L31.4303 109.321C25.2542 113.699 18.5324 116.815 11.2552 118.666C12.047 121.078 12.6671 123.401 13.1257 125.637L13.255 126.267L12.6122 126.237C9.60776 126.094 6.0336 127.414 3.60373 129.339C3.93761 130.242 4.16142 131.051 4.26742 131.76C4.38594 132.553 4.3625 133.258 4.14865 133.841C3.92796 134.443 3.51464 134.886 2.92943 135.144C2.41135 135.373 1.78385 135.448 1.07471 135.404C0.735247 135.693 0.604607 135.952 0.586418 136.145C0.569985 136.319 0.635676 136.56 0.972472 136.845C8.81422 138.289 12.311 145.88 13.8206 152.546L13.8637 152.736L13.7666 152.905C12.6707 154.815 12.2762 156.415 12.4775 157.731C12.6754 159.025 13.4644 160.139 14.9514 161.062L15.2365 161.239L15.1807 161.57C14.5672 165.21 14.8195 168.314 15.8959 170.908C16.9702 173.498 18.8826 175.621 21.6641 177.276L21.897 177.415L21.908 177.685C21.9949 179.815 23.0383 182.314 24.6318 184.096C26.2253 185.877 28.2673 186.842 30.3747 186.188L30.4756 186.157L30.5805 186.169C31.6359 186.291 32.5504 186.582 33.2908 187.069C34.8685 184.59 36.7403 183.241 38.6581 183.414C40.6476 183.593 42.3516 185.381 43.5607 188.406C45.5257 189.227 46.5087 191.343 46.7187 194.416C46.8202 194.588 47.0076 194.816 47.2924 195.091C47.6147 195.401 48.0336 195.742 48.523 196.093C49.5021 196.793 50.7368 197.51 51.9861 198.063C53.2431 198.62 54.4757 198.994 55.46 199.046C56.4094 199.096 56.9794 198.849 57.248 198.356C57.4218 196.813 57.691 195.511 58.0623 194.46C58.4397 193.392 58.9341 192.551 59.5733 191.989C60.2267 191.414 61.0056 191.155 61.8788 191.218C62.676 191.276 63.5274 191.599 64.425 192.144C67.336 191.269 69.4677 189.543 70.8407 186.972L70.9282 186.808L71.1014 186.741C73.9516 185.638 76.1451 183.996 78.3244 181.873L78.5424 181.66L78.8312 181.756L80.2648 182.233L80.3932 182.276L80.4825 182.378C82.3552 184.508 83.8954 185.802 85.6135 186.396C87.3205 186.987 89.2827 186.913 92.0566 186.121L92.6373 185.955L92.6918 186.556C92.7134 186.794 92.7686 186.931 92.8227 187.008C92.8686 187.073 92.9305 187.12 93.0428 187.145L93.4252 187.234L93.4304 187.626C93.445 188.728 93.5155 189.576 93.6265 190.213C93.7392 190.859 93.8869 191.245 94.0273 191.455C94.1532 191.642 94.2337 191.64 94.2708 191.638C94.3602 191.633 94.5349 191.569 94.7981 191.34C95.3148 190.889 95.9166 190.027 96.5114 188.966C97.0984 187.918 97.6517 186.724 98.0826 185.654L98.1375 185.518L98.2575 185.433L122.556 168.229C119.681 163.269 118.57 158.198 119.239 153.018L119.278 152.715L119.564 152.612C124.217 150.924 128.832 149.176 133.364 147.121L133.463 147.076L133.572 147.077C136.265 147.083 138.653 146.999 140.722 146.317C142.763 145.644 144.512 144.382 145.909 141.975L146.777 142.472C145.848 144.116 145.4 145.15 145.275 146.928L145.275 146.929C145.242 147.398 145.3 149.109 145.433 151.47C145.564 153.81 145.766 156.744 146.01 159.624C146.254 162.506 146.539 165.325 146.838 167.44C146.988 168.5 147.14 169.37 147.288 169.978C147.359 170.267 147.425 170.48 147.482 170.62C149.288 170.461 151.135 170.537 153.032 170.825C159.423 166.328 165.673 161.616 171.781 156.714L171.877 156.637L171.998 156.613C174.855 156.058 177.712 155.515 180.533 154.983L180.551 154.66C180.251 154.424 179.838 154.144 179.351 153.829C179.017 153.614 178.665 153.393 178.303 153.166C178.016 152.986 177.722 152.802 177.426 152.614C176.769 152.195 176.12 151.767 175.591 151.363C175.082 150.975 174.611 150.556 174.39 150.149L174.389 150.147C173.986 149.397 173.773 148.428 173.648 147.419C173.522 146.402 173.481 145.292 173.447 144.239C173.444 144.148 173.441 144.057 173.438 143.967C173.408 143.005 173.38 142.105 173.298 141.342C173.254 140.927 173.195 140.567 173.117 140.27C173.037 139.969 172.944 139.764 172.849 139.636C172.783 139.547 172.651 139.463 172.389 139.417C172.128 139.372 171.809 139.378 171.462 139.408C171.292 139.423 171.123 139.442 170.957 139.462C170.795 139.481 170.631 139.501 170.484 139.514C170.341 139.527 170.189 139.535 170.053 139.526C169.949 139.519 169.712 139.496 169.534 139.322C169.451 139.24 169.408 139.147 169.389 139.103C169.365 139.047 169.346 138.988 169.331 138.933C169.3 138.822 169.273 138.688 169.248 138.54C169.198 138.241 169.15 137.845 169.105 137.388C169.016 136.471 168.937 135.277 168.88 134.062C168.823 132.845 168.788 131.6 168.787 130.58C168.786 130.071 168.794 129.613 168.813 129.241C168.831 128.884 168.86 128.565 168.914 128.357L168.914 128.357C169.048 127.843 169.386 127.229 169.823 126.572C170.267 125.905 170.844 125.149 171.495 124.343C172.376 123.253 173.41 122.051 174.459 120.832C174.957 120.253 175.458 119.671 175.948 119.095C177.478 117.294 178.894 115.556 179.8 114.14C180.255 113.428 180.56 112.829 180.696 112.364C180.77 112.11 180.782 111.936 180.768 111.818C180.337 111.835 179.94 111.703 179.591 111.511C179.144 111.265 178.741 110.901 178.395 110.565C178.277 110.45 178.167 110.341 178.064 110.237C177.845 110.018 177.654 109.827 177.465 109.669C177.331 109.557 177.225 109.486 177.142 109.446C177.102 109.428 177.074 109.419 177.057 109.416C177.048 109.414 177.043 109.414 177.04 109.414L177.036 109.414L177.035 109.414L177.03 109.414C176.622 109.473 175.831 109.476 174.895 109.467C174.538 109.464 174.155 109.459 173.754 109.454C173.076 109.445 172.345 109.435 171.598 109.432C170.413 109.428 169.208 109.443 168.155 109.507C167.089 109.572 166.226 109.687 165.699 109.864L165.697 109.864C165.461 109.943 165.06 110.132 164.511 110.425C163.971 110.712 163.314 111.085 162.577 111.515C161.706 112.022 160.733 112.602 159.714 113.209C159.003 113.633 158.269 114.07 157.533 114.505C155.749 115.559 153.956 116.593 152.467 117.363C151.723 117.748 151.046 118.071 150.479 118.298C149.934 118.516 149.419 118.676 149.029 118.669L149.028 118.669C147.593 118.641 146.68 117.568 146.109 116.214C145.533 114.85 145.228 113.043 145.071 111.189C144.816 108.189 144.94 104.934 145.014 102.991C145.032 102.53 145.047 102.142 145.053 101.85C145.171 96.0914 145.593 90.2739 146.027 84.4641C146.046 84.207 146.066 83.9499 146.085 83.6929C146.5 78.1365 146.915 72.5898 147.078 67.0885L147.078 67.0863C147.155 64.8227 147.164 62.714 146.476 60.6324C146.054 60.3607 145.299 59.922 144.433 59.5161C143.453 59.057 142.381 58.6642 141.507 58.5762L141.506 58.5762C140.897 58.5141 139.814 58.5264 138.58 58.5404C138.221 58.5445 137.849 58.5487 137.472 58.5513C136.65 58.557 135.814 58.5543 135.071 58.5221C134.336 58.4902 133.657 58.4286 133.162 58.3063L133.162 58.3063C132.618 58.1718 132.123 58.3124 131.479 58.4956C131.442 58.5062 131.404 58.5168 131.366 58.5276C130.702 58.7155 129.888 58.9219 128.985 58.5401C128.913 58.5101 128.851 58.4683 128.813 58.4412C128.766 58.4085 128.717 58.3699 128.667 58.3286C128.567 58.2458 128.447 58.1373 128.31 58.0099C128.037 57.7542 127.684 57.4054 127.28 56.9956C126.47 56.1748 125.443 55.0955 124.415 53.9948C123.386 52.8938 122.354 51.7689 121.535 50.8563C120.729 49.9576 120.1 49.2336 119.904 48.9548L119.903 48.953C119.077 47.7658 118.125 45.3747 117.513 43.0275C117.205 41.8457 116.977 40.6509 116.895 39.5979C116.814 38.5664 116.866 37.5905 117.191 36.9025M36.2193 6.10414L125.192 29.0168L125.548 29.3678L125.191 29.0179C124.725 29.49 123.826 30.3146 122.787 31.2669C122.188 31.8169 121.541 32.4096 120.905 33.0016C120.043 33.8036 119.205 34.6004 118.546 35.2724C118.216 35.6081 117.927 35.9175 117.7 36.1839C117.483 36.4386 117.292 36.69 117.191 36.9025M36.2193 6.10414C36.5451 6.70739 36.7916 7.37514 37.0519 8.08054C37.1291 8.28963 37.2075 8.50202 37.2895 8.71702C37.6893 9.76457 38.1728 10.8581 39.0469 11.6717L39.0476 11.6723C39.4098 12.0083 40.0483 12.3862 40.7772 12.7526C41.5212 13.1266 42.4076 13.5123 43.3037 13.8562C44.1994 14.2001 45.1134 14.5057 45.9125 14.7171C46.6904 14.9229 47.4242 15.0578 47.9273 15.0141L47.9307 15.0137C48.9698 14.9162 50.2708 14.3456 51.6463 13.5928C53.0393 12.8304 54.5803 11.8395 56.1144 10.8381C56.3212 10.7031 56.5278 10.568 56.734 10.4331C58.0646 9.56274 59.3769 8.70431 60.5902 7.98408C62.0011 7.14657 63.2289 6.52648 64.1605 6.28476L64.1609 6.28466C65.6606 5.89425 67.2515 5.94524 68.8841 6.0389C69.0284 6.04717 69.1732 6.05582 69.3185 6.06448C70.7855 6.15201 72.2913 6.24185 73.6754 5.98284L73.677 5.98252C74.2636 5.87072 74.8448 5.52859 75.3838 5.12863C75.9302 4.72317 76.4851 4.218 77.0152 3.72812C77.0709 3.67668 77.1262 3.62543 77.1813 3.57444C77.6591 3.13216 78.1152 2.70999 78.5512 2.36088C79.0453 1.9653 79.4596 1.70909 79.7946 1.61526C80.0489 1.54404 80.7391 1.43827 81.6965 1.32387C82.6355 1.21166 83.7887 1.09579 84.9365 0.998686C86.0849 0.901539 87.2229 0.823597 88.1324 0.786734C88.5877 0.768281 88.9805 0.760343 89.2864 0.764955C89.4456 0.767355 89.5683 0.773181 89.6583 0.780206C89.8303 1.10999 90.0004 1.57638 90.165 2.17184C90.3619 2.88393 90.5416 3.7445 90.71 4.70675C91.0186 6.47 91.2838 8.54096 91.549 10.6121C91.5735 10.8029 91.5979 10.9936 91.6223 11.1841C91.9112 13.434 92.2051 15.6534 92.5587 17.4027C92.7353 18.2766 92.9302 19.0511 93.1532 19.6614C93.2648 19.9668 93.3877 20.2429 93.5255 20.4745C93.661 20.7021 93.8273 20.9147 94.0375 21.062C94.141 21.1347 94.2927 21.1926 94.4085 21.2345C94.5491 21.2854 94.7295 21.3439 94.9405 21.4081C95.3635 21.5369 95.9302 21.6952 96.5913 21.8714C97.9147 22.2242 99.6318 22.6531 101.368 23.0694C103.104 23.4858 104.862 23.8904 106.269 24.1944C106.972 24.3463 107.589 24.4736 108.073 24.5648C108.541 24.6531 108.922 24.7151 109.127 24.7234C109.127 24.7234 109.127 24.7234 109.127 24.7234L109.147 24.2238C111.153 24.3049 113.207 23.9993 115.273 23.6918L36.2193 6.10414ZM117.191 36.9025L117.644 37.116L117.191 36.903C117.191 36.9028 117.191 36.9027 117.191 36.9025ZM146.342 142.226L146.774 142.477C146.293 143.306 145.769 144.015 145.206 144.621C145.465 143.848 145.838 143.118 146.342 142.226ZM146.342 142.226L145.906 141.98C145.415 142.85 145.038 143.584 144.768 144.357C145.333 143.762 145.859 143.058 146.342 142.226ZM92.1939 186.601C92.2109 186.789 92.247 186.952 92.3032 187.09C92.3125 187.087 92.3219 187.085 92.3312 187.082L92.1939 186.601ZM92.1939 186.601L91.6959 186.646C91.6986 186.676 91.7018 186.706 91.7054 186.736C91.8657 186.693 92.0285 186.649 92.1939 186.601ZM147.262 171.144L147.386 170.659C147.483 170.684 147.534 170.736 147.546 170.75L147.262 171.144ZM33.6932 187.368C33.6047 187.508 33.5168 187.652 33.4296 187.8C33.3042 187.691 33.1707 187.589 33.029 187.495L33.6932 187.368ZM125.558 24.4684C125.782 24.5585 126.009 24.6349 126.207 24.7016C126.284 24.7273 126.356 24.7515 126.421 24.7745C126.676 24.8636 126.859 24.9403 126.996 25.0332C127.122 25.1178 127.207 25.2137 127.265 25.3521C127.316 25.476 127.356 25.6572 127.355 25.9302L125.558 24.4684Z" fill="#94DCE3" stroke="#007DC0"/>
</svg>
