<svg width="165" height="158" viewBox="0 0 165 158" fill="none" xmlns="http://www.w3.org/2000/svg">
<path d="M64.611 146.373C64.5224 146.228 64.3518 146.024 64.1564 145.804C63.9509 145.573 63.6876 145.292 63.3877 144.981C62.7875 144.359 62.0312 143.608 61.2776 142.88C60.5242 142.153 59.7696 141.446 59.173 140.915C58.8755 140.649 58.6124 140.424 58.4062 140.26C58.3039 140.178 58.2088 140.107 58.1268 140.052C58.086 140.025 58.0417 139.997 57.9967 139.973C57.9613 139.955 57.886 139.917 57.7928 139.901L57.7895 139.9C56.8204 139.739 55.9813 140.268 55.3156 140.961C54.6413 141.662 54.0477 142.627 53.5465 143.582C53.0713 144.487 52.6632 145.415 52.3406 146.148L52.2829 146.279C52.1153 146.66 51.9759 146.973 51.862 147.202C51.8048 147.317 51.7595 147.4 51.7252 147.454C51.7213 147.46 51.7178 147.466 51.7146 147.47C51.6117 147.518 51.3878 147.583 51.0042 147.64C50.5854 147.703 50.0457 147.747 49.4174 147.772C48.1627 147.823 46.5917 147.8 45.0038 147.718C43.4163 147.637 41.8225 147.497 40.5225 147.319C39.872 147.229 39.3016 147.131 38.8454 147.027C38.3763 146.92 38.0728 146.816 37.9231 146.732C37.6821 146.596 37.4552 146.348 37.2321 145.987C37.0102 145.629 36.8162 145.199 36.6202 144.738C36.5827 144.649 36.545 144.56 36.5069 144.469C36.3519 144.1 36.1915 143.718 36.0207 143.38C35.8105 142.965 35.5512 142.547 35.1999 142.268C34.6175 141.805 33.7332 141.39 32.754 141.002C31.8959 140.662 30.9217 140.327 29.9432 139.99C29.7926 139.938 29.6419 139.887 29.4915 139.835C28.3564 139.443 27.2355 139.046 26.2643 138.627C25.2843 138.204 24.5045 137.777 24.0217 137.34C24.0241 137.342 24.0135 137.333 23.985 137.3C23.9591 137.271 23.9257 137.231 23.8845 137.18C23.8021 137.079 23.6955 136.942 23.567 136.774C23.3105 136.437 22.9744 135.982 22.5851 135.447C21.8069 134.377 20.8219 132.993 19.8467 131.605C18.8716 130.216 17.9079 128.825 17.1722 127.741C16.8042 127.198 16.4947 126.734 16.2698 126.387C16.1572 126.213 16.0676 126.071 16.0031 125.963C15.9463 125.869 15.9214 125.822 15.9141 125.808C15.9127 125.806 15.9119 125.804 15.9117 125.804C15.8621 125.672 15.8163 125.559 15.7754 125.459C15.6263 125.092 15.5423 124.885 15.5753 124.48C15.5953 124.267 15.7307 123.89 16.0171 123.341C16.2946 122.808 16.6828 122.171 17.147 121.46C17.9012 120.305 18.8374 118.982 19.7915 117.635C20.0126 117.322 20.2348 117.009 20.4559 116.695C21.624 115.039 22.7633 113.393 23.5376 112.056C23.9234 111.39 24.2323 110.778 24.4063 110.267C24.4931 110.012 24.5543 109.759 24.5656 109.523C24.5768 109.291 24.5413 109.024 24.377 108.798L24.2384 108.606L24.0026 108.592C23.2721 108.547 22.3369 108.273 21.3295 107.977C21.2567 107.956 21.1835 107.934 21.1101 107.913C20.5794 107.757 20.0383 107.603 19.5312 107.494C19.0284 107.386 18.5271 107.315 18.0805 107.341C17.1257 107.399 16.428 107.99 15.9681 108.475C15.8073 108.645 15.6558 108.823 15.5355 108.966C15.4878 109.022 15.4451 109.072 15.4086 109.114C15.3933 109.101 15.3772 109.086 15.3603 109.071C15.1719 108.899 14.9201 108.646 14.6221 108.329C14.0281 107.698 13.2756 106.843 12.5263 105.958C11.7774 105.073 11.0365 104.163 10.4656 103.423C10.1798 103.052 9.93965 102.729 9.7633 102.474C9.67498 102.346 9.60553 102.24 9.5553 102.156C9.53111 102.116 9.513 102.083 9.50007 102.058C9.51124 102.039 9.5317 102.009 9.56822 101.967C9.68985 101.826 9.91009 101.649 10.2362 101.44C10.882 101.025 11.807 100.569 12.8034 100.091C12.9287 100.031 13.0551 99.9705 13.182 99.9098C14.049 99.4949 14.9388 99.0692 15.6721 98.6595C16.0929 98.4243 16.4776 98.1861 16.7851 97.949C17.0793 97.7223 17.361 97.4535 17.5008 97.1424L17.5379 97.0598L17.5437 96.9694L18.3635 84.1514L18.3684 84.0753L18.3504 84.0013C18.2742 83.688 18.0189 83.4888 17.8317 83.371C17.6212 83.2385 17.3556 83.1233 17.0713 83.0206C16.4994 82.8142 15.7586 82.6262 15.0065 82.4533C14.6279 82.3662 14.2411 82.2818 13.8656 82.2L13.8122 82.1884C13.4546 82.1105 13.1086 82.0352 12.7863 81.9614C12.0943 81.803 11.561 81.6623 11.2726 81.5374L11.2702 81.5363C8.68294 80.4313 6.93034 77.9299 5.4278 75.0115C4.86094 73.9104 4.33976 72.7715 3.82331 71.6429C3.65776 71.2811 3.49269 70.9204 3.32675 70.5623C2.77919 69.3806 2.22308 68.23 1.61916 67.2C1.8041 67.202 2.00946 67.2094 2.23331 67.2207C2.44656 67.2314 2.6767 67.2456 2.91463 67.2604C3.32197 67.2856 3.75216 67.3122 4.15959 67.3251C4.80923 67.3456 5.47348 67.3353 6.02262 67.221C6.54841 67.1115 7.13369 66.8714 7.36946 66.2926L7.37009 66.291C7.47874 66.0217 7.48587 65.7145 7.48751 65.4878C7.48792 65.4325 7.48792 65.3796 7.48793 65.3287C7.48795 65.1391 7.48796 64.976 7.5084 64.8131C7.53293 64.6175 7.58239 64.4788 7.66278 64.3751C7.73864 64.2773 7.87783 64.1643 8.1702 64.0858L8.18548 64.0817L8.20047 64.0766C11.5993 62.9285 15.1674 62.0608 18.7624 61.1866C19.1583 61.0903 19.5544 60.9939 19.9507 60.8971C23.9361 59.9237 27.931 58.9043 31.6813 57.4517L33.005 56.9391L32.3907 56.7438C32.7565 56.1858 32.8528 55.4848 32.8094 54.7669C32.75 53.7845 32.4264 52.6483 32.0368 51.5089C33.1013 49.0271 33.6229 46.7784 33.5403 44.753C33.9459 44.2614 34.3582 43.7544 34.7746 43.2423C36.6866 40.8908 38.685 38.4332 40.5212 36.8725C41.6699 35.8961 42.6551 35.3616 43.4415 35.3337C43.8129 35.3206 44.1492 35.4198 44.4641 35.6622C44.7884 35.9117 45.1135 36.3318 45.4114 36.9956L45.4938 37.1791L45.6802 37.2545C45.8189 37.3105 46.0261 37.4436 46.2958 37.6749C46.5588 37.9005 46.8559 38.1974 47.174 38.5518C47.8099 39.2603 48.5089 40.1755 49.1594 41.1534C49.81 42.1314 50.4046 43.161 50.8362 44.0963C51.2756 45.0485 51.5178 45.844 51.5234 46.3743L51.5245 46.4767L51.5658 46.5705C52.3786 48.4158 54.2988 52.17 55.9807 54.4341C56.4018 55.001 56.8229 55.495 57.2213 55.8445C57.4206 56.0194 57.6281 56.1704 57.8398 56.2744C58.0497 56.3776 58.295 56.4498 58.5544 56.4207C59.1397 56.355 59.4389 55.8496 59.5817 55.3133C59.7298 54.7567 59.7755 53.962 59.7235 52.9096L59.7211 52.8613L59.7095 52.8143C59.3554 51.3812 60.0341 50.3242 61.0823 49.8245C62.1534 49.3139 63.6002 49.3981 64.7061 50.3442L64.938 50.5426L65.2205 50.427C68.0346 49.2754 71.1011 47.9934 72.6743 45.0036C75.8723 43.6882 78.1933 41.8741 80.697 39.7695L80.8752 39.6197V39.3868V37.8572C81.1983 38.047 81.5399 38.1677 81.899 38.22C82.5909 38.3209 83.2897 38.1598 83.97 37.8515C85.3126 37.2433 86.7303 35.9914 88.1465 34.62C88.6111 34.1701 89.0766 33.7061 89.5439 33.2405C90.529 32.2589 91.5218 31.2697 92.5292 30.388C93.8004 29.2755 95.0341 28.3918 96.2128 27.9479C96.3927 32.3897 96.8089 37.6235 97.4521 41.1123C97.6211 42.029 97.8079 42.8375 98.0142 43.4851C98.2137 44.1113 98.453 44.6604 98.7632 44.9903C98.9254 45.1627 99.151 45.3221 99.4414 45.3441C99.7393 45.3667 99.9919 45.2367 100.185 45.0653C100.521 44.7667 100.81 44.2267 101.081 43.5081L123.244 27.6826L123.499 27.5006L123.447 27.1918L122.876 23.8335L122.861 23.7448L122.816 23.6669C121.064 20.6388 120.154 16.9492 120.934 13.9699C121.32 12.4934 122.121 11.1875 123.452 10.1995C124.788 9.20794 126.69 8.5129 129.313 8.32248L129.423 8.31454L129.519 8.26151C134.543 5.48778 138.841 4.32702 144.731 4.48085L144.922 4.48584L145.067 4.36248C146.702 2.97733 149.43 1.90164 151.668 1.57229C152.794 1.40655 153.716 1.44249 154.291 1.66099C154.57 1.76704 154.728 1.90105 154.81 2.03715C154.888 2.16632 154.935 2.35849 154.871 2.66377L154.856 2.73907L154.863 2.81561L156.143 15.6637V24.9566V25.2817L156.43 25.4089C156.423 25.4317 156.412 25.4635 156.393 25.5056C156.277 25.7613 156.023 26.0808 155.722 26.4585L155.715 26.4675C155.574 26.6453 155.425 26.8339 155.303 27.0122C155.187 27.1814 155.062 27.3881 155.006 27.6005C154.977 27.7118 154.959 27.8544 154.994 28.0075C155.031 28.1718 155.123 28.3132 155.255 28.4172C155.325 28.4728 155.403 28.5146 155.486 28.5458L64.1839 146.633M64.611 146.373L64.1839 146.633M64.611 146.373C64.6109 146.373 64.6108 146.373 64.6107 146.373L64.1839 146.633M64.611 146.373C65.2845 147.476 65.6649 149.095 65.9946 150.499L66.0029 150.534L66.0056 150.546C66.1749 151.266 66.3321 151.935 66.5093 152.499C66.6918 153.079 66.8749 153.476 67.0623 153.692L67.0638 153.694C67.2277 153.885 67.5771 154.104 68.1026 154.306C68.6123 154.502 69.2309 154.66 69.8685 154.759C70.5061 154.859 71.1469 154.899 71.7001 154.868C72.2684 154.836 72.6843 154.733 72.9182 154.593L72.9196 154.592C73.165 154.447 73.4069 154.201 73.6529 153.851C73.8978 153.502 74.129 153.075 74.3636 152.593C74.508 152.297 74.6551 151.976 74.807 151.644C75.1331 150.931 75.4811 150.171 75.8707 149.508C76.4468 148.528 77.1918 147.612 78.273 147.245C79.3776 146.871 80.684 147.116 82.2674 148.112L82.268 148.112C83.2585 148.737 83.6575 149.647 83.9551 150.326C83.9952 150.417 84.0335 150.504 84.0711 150.586C84.2392 150.952 84.3813 151.191 84.5668 151.347C84.7156 151.472 84.9318 151.574 85.3162 151.58M64.1839 146.633C64.8159 147.668 65.1819 149.226 65.5217 150.672C65.8577 152.103 66.168 153.423 66.6844 154.019C67.6682 155.166 71.8219 155.83 73.1746 155.022C74.0489 154.504 74.6469 153.197 75.2767 151.82C76.5465 149.043 77.946 145.984 82.0012 148.535C82.8539 149.073 83.192 149.838 83.4933 150.519C83.8776 151.388 84.202 152.122 85.4581 152.078M85.3162 151.58C85.2784 151.603 85.2404 151.626 85.2024 151.649L85.4581 152.078M85.3162 151.58C86.7964 150.673 88.1716 149.318 89.448 147.493L89.4677 147.465L89.491 147.44C90.681 146.156 93.309 144.181 95.9659 142.856C97.2958 142.193 98.6676 141.674 99.8953 141.498C101.113 141.323 102.299 141.472 103.112 142.296L103.24 142.426L103.255 142.608C103.443 145.039 103.877 147.345 104.556 149.557C107.622 148.601 110.273 148.696 112.441 149.947C114.532 151.153 116.08 153.382 117.132 156.529C119.368 154.067 121.289 151.154 122.881 147.775L122.933 147.664L123.031 147.59C126.506 144.952 128.717 141.772 129.724 138.061L129.828 137.675L130.228 137.693C132.681 137.802 135.062 137.831 137.384 137.793C137.388 133.894 137.757 130.079 138.48 126.335C138.536 124.575 139.055 122.789 140.107 121.436C141.024 120.257 142.335 119.426 144.04 119.235M85.3162 151.58C85.3559 151.58 85.3973 151.58 85.4406 151.579L85.4581 152.078M85.4581 152.078C87.0567 151.127 88.5187 149.694 89.8577 147.78C92.1395 145.318 100.16 140.016 102.756 142.647C102.948 145.117 103.389 147.461 104.081 149.713L154.034 55.9715C154.231 56.4192 154.411 57.1346 154.56 58.0391C154.716 58.9893 154.832 60.1046 154.906 61.2483C155.055 63.5421 155.036 65.9005 154.865 67.2223M155.361 67.2894C155.353 67.3405 155.401 67.3763 155.462 67.4038C155.499 67.4206 155.542 67.4344 155.58 67.4468C155.701 67.4862 155.778 67.5112 155.501 67.5755L155.384 67.8901C155.355 67.8687 155.316 67.834 155.28 67.7832C155.245 67.7343 155.207 67.6606 155.194 67.5646C155.19 67.5287 155.189 67.4938 155.192 67.4603C155.197 67.4005 155.213 67.3451 155.235 67.2968C155.239 67.2891 155.242 67.2817 155.246 67.2745L155.361 67.2894ZM155.361 67.2894C155.368 67.2331 155.375 67.1752 155.382 67.1155C155.347 67.1415 155.29 67.1916 155.247 67.2724L155.361 67.2894ZM154.954 67.6131C154.968 67.6353 154.984 67.6557 155 67.6743C155.076 67.7637 155.165 67.8143 155.215 67.84C155.271 67.8684 155.325 67.8884 155.362 67.9014C155.367 67.903 155.372 67.9049 155.378 67.9068L151.562 53.5725C152.724 54.289 153.694 54.9794 154.445 55.6698C155.406 57.654 155.702 64.2336 155.385 67.0893L155.127 67.1491L155.09 67.2487L154.866 67.2153C154.866 67.2176 154.866 67.22 154.865 67.2223M154.954 67.6131L155.033 67.4011L155.088 67.2539L154.865 67.225C154.865 67.2241 154.865 67.2232 154.865 67.2223M154.954 67.6131C154.889 67.5136 154.844 67.3792 154.865 67.2223M154.954 67.6131L154.892 67.7793L154.821 67.9716L154.905 68.1587C156.344 71.3608 157.866 74.4463 159.471 77.402L159.509 77.4717L159.567 77.5264C160.557 78.4645 161.498 79.9049 162.221 81.489C162.943 83.071 163.428 84.752 163.539 86.1509C163.583 86.7295 163.612 87.2212 163.598 87.586C163.596 87.6336 163.594 87.6773 163.591 87.7173C163.578 87.7046 163.565 87.6912 163.551 87.677C163.255 87.3713 162.834 86.8148 162.25 85.9175L161.53 84.812L161.336 86.117C161.322 86.2116 161.304 86.3331 161.284 86.4767C161.161 87.325 160.927 88.9451 160.652 90.3474C160.489 91.1741 160.319 91.8912 160.159 92.3262C160.149 92.3517 160.14 92.3755 160.131 92.3978C159.865 92.3721 159.415 92.3984 158.885 92.447C158.292 92.5012 157.534 92.5906 156.668 92.7052C154.937 92.9345 152.765 93.2669 150.617 93.6274C148.469 93.9879 146.339 94.3774 144.694 94.7216C143.872 94.8936 143.164 95.0554 142.633 95.1979C142.369 95.2689 142.14 95.3371 141.96 95.4015C141.87 95.4336 141.786 95.4672 141.711 95.5024C141.645 95.5341 141.556 95.5811 141.478 95.6483M141.478 95.6483C141.478 95.6485 141.478 95.6487 141.478 95.6489L141.806 96.0256L141.478 95.6483ZM141.478 95.6483C141.104 95.9737 140.842 96.497 140.651 97.0778C140.457 97.673 140.317 98.395 140.229 99.1864C140.052 100.77 140.077 102.686 140.318 104.536C140.559 106.381 141.019 108.2 141.738 109.57C142.317 110.672 143.117 111.576 144.175 111.865C142.893 114.592 142.813 117.074 144.04 119.235M144.04 119.235C144.131 119.395 144.229 119.553 144.334 119.71C140.769 119.967 139.069 123.179 138.978 126.39C138.227 130.272 137.858 134.232 137.885 138.283C135.398 138.335 132.843 138.309 130.206 138.192C129.168 142.022 126.886 145.292 123.333 147.988C121.677 151.505 119.664 154.531 117.308 157.077M116.743 156.949C114.678 150.494 110.658 148.178 104.707 150.034L116.743 156.949Z" fill="#D9949B" stroke="#007DC0"/>
</svg>
