<svg width="208" height="312" viewBox="0 0 208 312" fill="none" xmlns="http://www.w3.org/2000/svg">
<mask id="path-1-inside-1_81_802" fill="white">
<path d="M57.38 272.232C55.9201 271.703 54.9731 269.538 53.6316 269.138C51.9481 268.648 48.5285 269.46 47.621 268.906C47.3843 268.751 45.2668 264.239 45.1616 263.852C44.1751 259.855 50.0673 248.987 49.4229 246.873C49.0546 245.648 43.0177 242.696 42.8731 242.129C42.3338 239.834 45.1089 234.767 44.7801 233.298C44.3724 231.518 40.5057 231.789 40.3084 231.596C39.8744 231.183 40.8476 227.277 39.9533 225.82C39.5982 225.24 37.5464 224.299 36.6389 223.267C35.7314 222.236 34.403 218.974 33.2851 218.781C31.7463 218.523 26.3801 224.492 24.2363 223.848C22.7896 223.409 22.4345 218.549 21.2245 217.092C19.9092 215.493 16.5817 216.009 18.2257 213.56C20.3827 210.349 25.5121 211.291 25.8014 210.994C26.0645 210.723 25.4069 208.39 25.8935 207.848C27.0772 206.533 29.7734 208.66 27.1035 202.614C23.1973 203.787 22.1451 205.334 17.9101 203.246C18.8965 200.706 21.8032 191.076 20.8825 189.09C20.6195 188.523 18.9228 187.53 19.2253 187.156C22.4345 186.873 20.8956 183.005 21.1981 180.697C19.9355 180.323 19.3437 182.128 18.331 181.935C17.6733 181.819 15.5558 179.073 13.7145 179.485C11.7811 179.846 11.9784 185.803 10.3738 185.197C8.00644 184.294 8.79558 180.156 8.72982 178.119L12.0047 178.763C12.1231 176.482 10.4001 172.678 7.7697 172.936C5.91523 173.117 5.44175 175.708 3.46891 175.54C2.67978 172.33 5.17871 171.531 6.42817 169.107C7.17785 167.65 11.9127 153.611 11.8469 152.76C11.5707 149.666 2.15368 138.63 0.535957 134.904C-0.318939 130.534 -0.397856 127.904 2.16683 124.307C6.34925 118.454 12.7413 113.155 16.6606 106.928L32.9168 46.7986C41.4789 32.9911 59.2082 37.8772 68.1912 24.6498C70.1114 21.8135 71.545 17.804 73.5441 15.0709C74.57 13.6785 77.6213 11.5771 78.0948 10.507C78.6866 9.17913 78.1606 7.27108 78.5157 6.72961C78.7524 6.38152 81.6722 6.09789 82.7376 5.38881C83.8029 4.67974 84.2764 2.90062 85.0129 2.46228C85.9204 1.92081 97.3497 1.89502 99.1121 2.17865C100.98 2.47517 102.163 3.81597 104.399 4.08671C107.477 4.47347 110.62 3.22292 112.909 3.4292C116.434 3.75151 118.196 6.26549 124.115 5.32436C126.416 4.95048 128.876 4.39611 131.23 3.97067C132.151 3.80307 133.111 2.73302 133.992 2.73302C134.479 2.73302 134.386 4.13827 135.452 4.5895C136.846 5.16965 139.397 4.76999 140.897 5.72401C142.054 6.45887 144.053 10.1203 145.842 11.1903C147.223 12.0154 154.273 16.4374 154.759 16.6308C156.443 17.2754 157.982 16.7211 159.52 17.1207C164.847 18.5131 165.36 20.9884 168.543 24.0697C171.015 26.4676 177.763 30.7736 181.235 29.7422C181.906 29.5359 185.141 26.4031 185.654 25.6941C186.785 24.1083 186.851 22.3937 187.587 21.3107C188.495 19.9699 191.507 19.1835 191.888 16.9918L204.751 39.2567C205.672 41.9898 201.529 42.6989 200.306 44.246C199.477 45.2902 199.701 46.7857 198.504 47.9589C195.018 51.3883 183.471 53.8378 180.919 58.4403C180.459 59.2783 177.802 66.4335 177.894 66.8718C178.078 67.7743 179.617 68.3544 180.038 69.2311C180.419 70.0046 183.234 76.425 183.365 76.9149C185.312 84.1216 179.42 94.4999 173.146 98.2128L172.988 98.8961C168.319 100.276 165.11 102.145 169.766 106.258C173.186 118.157 176.605 130.031 180.051 141.879C185.693 141.569 187.166 143.348 183.918 148.531L176.421 155.248C174.882 157.698 174.895 158.768 177.539 160.224C181.472 161.978 184.904 164.273 187.811 167.109C191.875 173.001 195.518 176.997 202.094 179.962C203.883 186.305 205.277 192.751 206.264 199.301C207.408 201.363 207.973 203.272 207.947 205.038C203.028 206.778 198.083 208.428 193.124 210.014C192.243 207.9 191.138 206.984 189.823 207.242C186.746 209.318 184.431 208.996 182.892 206.288C177.131 209.086 171.318 212 165.452 215.003C158.337 216.409 158.652 217.646 161.375 223.461C161.375 224.441 160.231 224.711 157.968 224.286C155.759 225.562 153.628 226.387 151.59 226.748C153.247 232.111 151.511 236.482 146.184 232.253C143.751 232.034 140.976 232.15 144.566 233.981C148.696 235.193 154.523 236.998 157.574 240.285C158.534 241.329 162.164 250.418 161.691 251.888C159.573 256.478 159.836 257.161 163.282 260.152C162.756 267.526 163.006 272.206 170.108 276.345C170.226 282.675 175.014 285.343 180.696 286.439C181.195 287.393 181.077 288.463 180.367 289.649C180.696 289.92 180.696 293.298 180.577 293.943C180.419 294.781 179.906 297.295 179.052 297.385L178.854 298.004C171.226 299.692 163.782 301.807 156.535 304.347C156.18 307.518 151.603 306.77 149.459 305.765C147.565 305.919 146.289 306.706 143.909 306.371C141.528 306.035 139.082 303.947 136.622 303.779C130.783 303.38 128.284 307.286 120.327 304.334C112.37 301.381 121.471 298.867 118.249 294.755C117.815 294.2 113.922 291.132 113.461 291.029C112.041 290.668 110.712 291.764 109.16 291.493C107.924 291.274 106.583 289.469 105.754 289.649C104.925 289.83 100.23 297.668 102.111 299.319C108.292 297.23 107.911 302.374 105.017 306.371C103.281 308.769 99.4146 311.953 96.166 311.283C94.1405 310.857 86.0256 303.238 85.7494 301.459C85.6705 300.969 90.1817 294.922 90.2869 293.143C90.3922 291.158 87.5776 288.94 87.1436 287.239C86.4991 284.712 87.8669 282.069 86.0519 279.929C82.9743 276.306 81.3039 281.218 79.4363 281.257C77.1215 281.308 71.4398 276.499 67.9018 278.046C67.6914 276.796 68.2175 270.646 67.8755 270.337C67.7045 270.182 66.1394 270.466 65.2977 269.989C64.5217 269.55 64.0219 267.539 62.9697 267.101C61.3914 266.431 62.3121 268.79 61.8649 269.55C61.7334 269.77 58.1954 271.742 57.3932 272.258L57.38 272.232Z"/>
</mask>
<path d="M57.38 272.232C55.9201 271.703 54.9731 269.538 53.6316 269.138C51.9481 268.648 48.5285 269.46 47.621 268.906C47.3843 268.751 45.2668 264.239 45.1616 263.852C44.1751 259.855 50.0673 248.987 49.4229 246.873C49.0546 245.648 43.0177 242.696 42.8731 242.129C42.3338 239.834 45.1089 234.767 44.7801 233.298C44.3724 231.518 40.5057 231.789 40.3084 231.596C39.8744 231.183 40.8476 227.277 39.9533 225.82C39.5982 225.24 37.5464 224.299 36.6389 223.267C35.7314 222.236 34.403 218.974 33.2851 218.781C31.7463 218.523 26.3801 224.492 24.2363 223.848C22.7896 223.409 22.4345 218.549 21.2245 217.092C19.9092 215.493 16.5817 216.009 18.2257 213.56C20.3827 210.349 25.5121 211.291 25.8014 210.994C26.0645 210.723 25.4069 208.39 25.8935 207.848C27.0772 206.533 29.7734 208.66 27.1035 202.614C23.1973 203.787 22.1451 205.334 17.9101 203.246C18.8965 200.706 21.8032 191.076 20.8825 189.09C20.6195 188.523 18.9228 187.53 19.2253 187.156C22.4345 186.873 20.8956 183.005 21.1981 180.697C19.9355 180.323 19.3437 182.128 18.331 181.935C17.6733 181.819 15.5558 179.073 13.7145 179.485C11.7811 179.846 11.9784 185.803 10.3738 185.197C8.00644 184.294 8.79558 180.156 8.72982 178.119L12.0047 178.763C12.1231 176.482 10.4001 172.678 7.7697 172.936C5.91523 173.117 5.44175 175.708 3.46891 175.54C2.67978 172.33 5.17871 171.531 6.42817 169.107C7.17785 167.65 11.9127 153.611 11.8469 152.76C11.5707 149.666 2.15368 138.63 0.535957 134.904C-0.318939 130.534 -0.397856 127.904 2.16683 124.307C6.34925 118.454 12.7413 113.155 16.6606 106.928L32.9168 46.7986C41.4789 32.9911 59.2082 37.8772 68.1912 24.6498C70.1114 21.8135 71.545 17.804 73.5441 15.0709C74.57 13.6785 77.6213 11.5771 78.0948 10.507C78.6866 9.17913 78.1606 7.27108 78.5157 6.72961C78.7524 6.38152 81.6722 6.09789 82.7376 5.38881C83.8029 4.67974 84.2764 2.90062 85.0129 2.46228C85.9204 1.92081 97.3497 1.89502 99.1121 2.17865C100.98 2.47517 102.163 3.81597 104.399 4.08671C107.477 4.47347 110.62 3.22292 112.909 3.4292C116.434 3.75151 118.196 6.26549 124.115 5.32436C126.416 4.95048 128.876 4.39611 131.23 3.97067C132.151 3.80307 133.111 2.73302 133.992 2.73302C134.479 2.73302 134.386 4.13827 135.452 4.5895C136.846 5.16965 139.397 4.76999 140.897 5.72401C142.054 6.45887 144.053 10.1203 145.842 11.1903C147.223 12.0154 154.273 16.4374 154.759 16.6308C156.443 17.2754 157.982 16.7211 159.52 17.1207C164.847 18.5131 165.36 20.9884 168.543 24.0697C171.015 26.4676 177.763 30.7736 181.235 29.7422C181.906 29.5359 185.141 26.4031 185.654 25.6941C186.785 24.1083 186.851 22.3937 187.587 21.3107C188.495 19.9699 191.507 19.1835 191.888 16.9918L204.751 39.2567C205.672 41.9898 201.529 42.6989 200.306 44.246C199.477 45.2902 199.701 46.7857 198.504 47.9589C195.018 51.3883 183.471 53.8378 180.919 58.4403C180.459 59.2783 177.802 66.4335 177.894 66.8718C178.078 67.7743 179.617 68.3544 180.038 69.2311C180.419 70.0046 183.234 76.425 183.365 76.9149C185.312 84.1216 179.42 94.4999 173.146 98.2128L172.988 98.8961C168.319 100.276 165.11 102.145 169.766 106.258C173.186 118.157 176.605 130.031 180.051 141.879C185.693 141.569 187.166 143.348 183.918 148.531L176.421 155.248C174.882 157.698 174.895 158.768 177.539 160.224C181.472 161.978 184.904 164.273 187.811 167.109C191.875 173.001 195.518 176.997 202.094 179.962C203.883 186.305 205.277 192.751 206.264 199.301C207.408 201.363 207.973 203.272 207.947 205.038C203.028 206.778 198.083 208.428 193.124 210.014C192.243 207.9 191.138 206.984 189.823 207.242C186.746 209.318 184.431 208.996 182.892 206.288C177.131 209.086 171.318 212 165.452 215.003C158.337 216.409 158.652 217.646 161.375 223.461C161.375 224.441 160.231 224.711 157.968 224.286C155.759 225.562 153.628 226.387 151.59 226.748C153.247 232.111 151.511 236.482 146.184 232.253C143.751 232.034 140.976 232.15 144.566 233.981C148.696 235.193 154.523 236.998 157.574 240.285C158.534 241.329 162.164 250.418 161.691 251.888C159.573 256.478 159.836 257.161 163.282 260.152C162.756 267.526 163.006 272.206 170.108 276.345C170.226 282.675 175.014 285.343 180.696 286.439C181.195 287.393 181.077 288.463 180.367 289.649C180.696 289.92 180.696 293.298 180.577 293.943C180.419 294.781 179.906 297.295 179.052 297.385L178.854 298.004C171.226 299.692 163.782 301.807 156.535 304.347C156.18 307.518 151.603 306.77 149.459 305.765C147.565 305.919 146.289 306.706 143.909 306.371C141.528 306.035 139.082 303.947 136.622 303.779C130.783 303.38 128.284 307.286 120.327 304.334C112.37 301.381 121.471 298.867 118.249 294.755C117.815 294.2 113.922 291.132 113.461 291.029C112.041 290.668 110.712 291.764 109.16 291.493C107.924 291.274 106.583 289.469 105.754 289.649C104.925 289.83 100.23 297.668 102.111 299.319C108.292 297.23 107.911 302.374 105.017 306.371C103.281 308.769 99.4146 311.953 96.166 311.283C94.1405 310.857 86.0256 303.238 85.7494 301.459C85.6705 300.969 90.1817 294.922 90.2869 293.143C90.3922 291.158 87.5776 288.94 87.1436 287.239C86.4991 284.712 87.8669 282.069 86.0519 279.929C82.9743 276.306 81.3039 281.218 79.4363 281.257C77.1215 281.308 71.4398 276.499 67.9018 278.046C67.6914 276.796 68.2175 270.646 67.8755 270.337C67.7045 270.182 66.1394 270.466 65.2977 269.989C64.5217 269.55 64.0219 267.539 62.9697 267.101C61.3914 266.431 62.3121 268.79 61.8649 269.55C61.7334 269.77 58.1954 271.742 57.3932 272.258L57.38 272.232Z" fill="#88A5E3" stroke="#007DC0" stroke-width="2" mask="url(#path-1-inside-1_81_802)"/>
</svg>
