<svg width="86" height="89" viewBox="0 0 86 89" fill="none" xmlns="http://www.w3.org/2000/svg">
<path d="M19.4821 3.04876L19.1112 2.89046C19.4033 2.20608 19.2771 1.84108 19.0697 1.61609C18.8141 1.33884 18.307 1.13016 17.5864 1.04863C16.8852 0.969293 16.0689 1.02081 15.3028 1.17475C14.5421 1.32762 13.8724 1.57309 13.4311 1.85634C13.4287 1.85879 13.4256 1.8619 13.422 1.86575C13.4016 1.88724 13.372 1.92101 13.3327 1.96961C13.2543 2.06641 13.1516 2.2038 13.0269 2.38007C12.7782 2.73148 12.4557 3.21806 12.0877 3.80076C11.352 4.96539 10.4437 6.49894 9.59456 8.07327C8.74375 9.65062 7.96018 11.2543 7.46706 12.5633C7.21975 13.2198 7.0532 13.7822 6.98299 14.2199C6.94793 14.4385 6.93967 14.6096 6.95056 14.7367C6.9617 14.8666 6.99 14.9182 6.99843 14.9302L7.04151 14.9913L7.06483 15.0623C8.31074 18.856 9.18575 22.6895 9.70278 26.588L9.73854 26.8576L9.53164 27.0341C7.4515 28.8088 5.30942 30.5829 3.14226 32.3444L0.986144 65.9555L0.97969 66.0561L0.934752 66.1463C0.891407 66.2334 0.856215 66.3091 0.827824 66.3748C0.899389 66.364 0.978764 66.3541 1.05535 66.3504C1.18385 66.3443 1.40559 66.3482 1.60687 66.4777C1.84714 66.6324 1.94007 66.8827 1.94925 67.1208C1.95762 67.3379 1.90123 67.5813 1.80987 67.843L1.7951 67.8853L1.77305 67.9243C0.951538 69.3769 0.643326 70.3915 0.608963 71.0886C0.576021 71.7568 0.792533 72.1258 1.0658 72.3587C1.36582 72.6143 1.79317 72.7548 2.24599 72.8314C2.46698 72.8688 2.68086 72.8889 2.87197 72.9034C2.91863 72.9069 2.96695 72.9102 3.01512 72.9136C3.14635 72.9226 3.27647 72.9316 3.36898 72.9441L3.37107 72.9444C3.9157 73.0207 4.7997 73.3571 5.75076 73.8202C6.71968 74.292 7.81605 74.9239 8.79935 75.6336C9.77458 76.3374 10.6754 77.1438 11.2151 77.9731C11.7569 78.8055 12.0018 79.7862 11.3791 80.6754L11.3779 80.677C11.1792 80.9584 10.8987 81.117 10.6211 81.2089C10.3481 81.2993 10.0491 81.3349 9.76929 81.3521C9.56216 81.3649 9.34141 81.3685 9.13374 81.3719C9.06265 81.373 8.99309 81.3742 8.92613 81.3756C8.65156 81.3817 8.40708 81.3932 8.19376 81.427C7.76005 81.4958 7.6113 81.6255 7.55343 81.819C7.46771 82.1056 7.51111 82.7148 8.04625 83.9241C8.29518 84.4808 8.70546 84.9917 9.17039 85.5707C9.29544 85.7265 9.42444 85.8871 9.55532 86.0549C10.0529 86.6928 10.5614 87.4204 10.7837 88.2823C11.147 88.2021 11.4448 87.9988 11.809 87.7065C11.8681 87.6591 11.929 87.6092 11.992 87.5575C12.4438 87.1872 13.0066 86.7258 13.8228 86.4295C14.8953 86.0346 15.8767 85.9272 16.7034 85.8839C16.9095 85.8731 17.1069 85.8662 17.2919 85.8601L17.3448 85.8584C17.5112 85.8529 17.666 85.8478 17.8133 85.8406C18.1426 85.8246 18.4024 85.7992 18.6121 85.7478C18.8171 85.6977 18.9462 85.6292 19.035 85.5454C19.1209 85.4642 19.2056 85.3344 19.2618 85.0963C19.382 84.5875 19.3465 83.707 19.0416 82.1767C18.9588 81.7773 18.7701 81.4432 18.5227 81.0051C18.4936 80.9535 18.4636 80.9005 18.4329 80.8457C18.1505 80.3417 17.8404 79.7416 17.7216 78.9264C17.4938 77.3634 17.4949 76.2226 17.6756 75.3417C17.8599 74.4435 18.2266 73.8359 18.6843 73.3405C18.907 73.0993 19.1474 72.8889 19.3832 72.6914C19.457 72.6295 19.5294 72.5697 19.601 72.5106C19.7647 72.3752 19.9245 72.2433 20.0889 72.0972C20.5462 71.6907 20.9934 71.2133 21.3781 70.4857L21.3797 70.4827C21.4513 70.3495 21.5407 70.1077 21.6514 69.7517C21.7401 69.4666 21.8345 69.135 21.9392 68.7675C21.962 68.6874 21.9853 68.6056 22.0091 68.5223C22.2723 67.6009 22.5949 66.5041 23.0084 65.5243C23.4142 64.563 23.9432 63.6241 24.6654 63.1007C25.0402 62.829 25.4772 62.6621 25.9706 62.6747C26.4589 62.6872 26.9515 62.8741 27.4457 63.2183L27.5606 63.2984L27.6172 63.4265C27.6968 63.6064 27.881 63.8862 28.1778 64.2612C28.4676 64.6273 28.841 65.0551 29.2721 65.5253C30.1346 66.4658 31.2074 67.5534 32.2622 68.6229L32.2639 68.6246C33.3138 69.6891 34.3477 70.7373 35.1188 71.5869C35.5038 72.0111 35.833 72.3961 36.0685 72.7154C36.1858 72.8744 36.2881 73.028 36.3631 73.1695C36.4291 73.294 36.5114 73.4758 36.5114 73.6716V84.6221C36.5802 84.6392 36.6616 84.6577 36.755 84.6771C37.1259 84.7539 37.6352 84.8339 38.1668 84.8938C38.6995 84.9539 39.2398 84.992 39.6755 84.989C39.8943 84.9875 40.074 84.9756 40.2074 84.9547C40.3108 84.9385 40.3543 84.9216 40.3623 84.9192C40.4297 84.8611 40.5065 84.747 40.5812 84.5296C40.6599 84.3006 40.7157 84.0213 40.7775 83.6905C40.7823 83.665 40.7871 83.6391 40.792 83.613C40.8473 83.3154 40.9091 82.9836 40.9984 82.672C41.0957 82.3329 41.2363 81.9764 41.4712 81.6779L41.4738 81.6747C41.9193 81.1181 42.6356 80.8355 43.3843 80.6826C44.1456 80.5272 45.0325 80.488 45.9202 80.4912C46.5465 80.4935 47.1938 80.5174 47.8105 80.5402C48.0669 80.5497 48.3179 80.5589 48.56 80.5664C49.4012 80.5923 50.1304 80.5959 50.6771 80.5244C51.5613 80.4071 52.4977 79.9862 53.4427 79.5468L53.541 79.501C53.9687 79.3019 54.3988 79.1017 54.8028 78.9457C55.2343 78.779 55.6779 78.6456 56.0974 78.6256L56.1008 78.6255C57.0318 78.5875 57.7754 79.0553 58.3353 79.4076C58.3585 79.4222 58.3815 79.4367 58.4041 79.4509C59.0408 79.8502 59.3952 80.0286 59.7687 79.9215C59.7691 79.9214 59.7699 79.9211 59.7711 79.9207L59.7791 79.9174C59.7862 79.9144 59.796 79.9097 59.8087 79.9027C59.8345 79.8885 59.868 79.8671 59.9094 79.8364C59.9931 79.7742 60.0948 79.6843 60.2145 79.5636C60.4539 79.3219 60.7367 78.9856 61.0541 78.5733C61.688 77.7499 62.4259 76.6682 63.1829 75.5383C63.3537 75.2833 63.5255 75.0258 63.6971 74.7687C64.2816 73.8927 64.8636 73.0206 65.3962 72.2621C66.0743 71.2964 66.711 70.4573 67.1949 70.0337L67.1971 70.0317C68.0639 69.2821 69.4325 68.7544 70.5347 68.3926C70.9592 68.2533 71.3612 68.1335 71.6935 68.0345C71.7994 68.0029 71.8982 67.9734 71.9884 67.9462C72.1277 67.904 72.243 67.868 72.3345 67.8372C72.3134 67.7348 72.2781 67.6041 72.2299 67.4335C72.2226 67.4077 72.2151 67.3812 72.2074 67.3541C72.0933 66.9515 71.94 66.411 71.8861 65.8242C71.8278 65.1907 71.8814 64.4746 72.2303 63.7711C72.5807 63.0645 73.2055 62.4182 74.2065 61.8856L19.4821 3.04876ZM19.4821 3.04876L19.0818 3.21361C19.0894 3.23738 19.0999 3.30722 19.0937 3.46364C19.0899 3.55902 19.0823 3.65181 19.0736 3.75841C19.0679 3.82828 19.0617 3.90408 19.0558 3.99044C19.0295 4.37363 19.0118 4.90716 19.2389 5.3792L19.2389 5.37921L19.2406 5.38266C19.4832 5.87707 19.891 6.29922 20.2225 6.64235C20.2908 6.71309 20.3559 6.78047 20.4157 6.84443C20.8078 7.26431 21.0092 7.56564 21.0177 7.89372M19.4821 3.04876L21.0177 7.89372M21.0177 7.89372C21.0216 8.10021 20.9317 8.41677 20.7375 8.85213C20.5755 9.21534 20.367 9.60672 20.1468 10.0201C20.1104 10.0884 20.0738 10.1573 20.0369 10.2267C19.7833 10.7047 19.5221 11.2096 19.3446 11.6801C19.1734 12.1337 19.0421 12.6483 19.1497 13.1136L19.1502 13.1157C19.3178 13.826 19.9493 14.2729 20.5852 14.5722C21.2447 14.8827 22.0659 15.107 22.8539 15.2939C23.1724 15.3694 23.4817 15.4381 23.7782 15.5039C24.2403 15.6065 24.6712 15.7022 25.0574 15.8061C25.3686 15.8898 25.6218 15.9718 25.8108 16.0554C25.9045 16.0968 25.9729 16.1345 26.0207 16.1671C26.0697 16.2005 26.083 16.2191 26.0817 16.2173L26.0831 16.2192C26.2576 16.462 26.3507 16.8597 26.3658 17.4515C26.378 17.9321 26.3393 18.4687 26.2969 19.0549C26.2879 19.18 26.2787 19.3073 26.2698 19.4369C26.2204 20.1557 26.1818 20.9292 26.2582 21.6595C26.3348 22.3909 26.5305 23.1205 26.9821 23.7287L26.9826 23.7295C27.115 23.9071 27.3161 24.0916 27.5373 24.2697C27.7654 24.4536 28.0427 24.6526 28.35 24.858C28.9652 25.2691 29.7209 25.7189 30.4881 26.141C31.2557 26.5632 32.0421 26.9617 32.7202 27.2691C33.3787 27.5676 33.9888 27.8054 34.3788 27.8691L34.38 27.8693C34.6926 27.9196 35.0233 27.8752 35.3142 27.8121C35.5944 27.7514 35.8829 27.6625 36.1366 27.5843L36.1782 27.5715C36.4555 27.4862 36.6799 27.4191 36.8602 27.3879C36.8799 27.3845 36.8977 27.3818 36.9138 27.3796C36.9284 27.4396 36.9448 27.5102 36.9635 27.592C36.9721 27.63 36.9812 27.67 36.9906 27.7116C37.056 28.0007 37.14 28.3715 37.2475 28.7597C37.3704 29.2031 37.5287 29.6874 37.7368 30.1226C37.9408 30.5494 38.2148 30.9769 38.593 31.2575C39.0871 31.6273 39.6587 31.7953 40.208 31.898C40.4838 31.9495 40.7657 31.9865 41.0368 32.0211L41.1016 32.0294C41.3538 32.0615 41.5967 32.0924 41.8371 32.1329C42.3584 32.2206 42.8248 32.347 43.2305 32.5881C43.6268 32.8236 43.9907 33.1839 44.2816 33.7825L44.2817 33.7827C44.5001 34.2316 44.4571 34.7183 44.2058 35.2741C43.95 35.8403 43.5041 36.4162 43.0149 36.9821C42.8715 37.148 42.7209 37.3165 42.5717 37.4835C42.238 37.8569 41.911 38.223 41.6849 38.5361C41.521 38.7631 41.3616 39.0245 41.3015 39.2945C41.2697 39.4375 41.2611 39.6024 41.3106 39.7719C41.3616 39.9463 41.4638 40.0903 41.5971 40.2012L41.7128 40.2974L41.8624 40.3137C42.6887 40.4041 43.5177 40.3359 44.318 40.2254C44.6936 40.1735 45.0691 40.1114 45.4365 40.0506L45.5097 40.0385C45.9029 39.9735 46.2868 39.9108 46.6669 39.8613C48.1898 39.6628 49.5473 39.6925 50.7749 40.5936L50.7757 40.5942C50.8879 40.6762 50.9929 40.798 51.1057 40.9703C51.1881 41.0963 51.2599 41.2247 51.3409 41.3696C51.3758 41.432 51.4124 41.4975 51.4523 41.5671C51.6926 41.9866 52.0375 42.5372 52.6963 42.7646L52.6968 42.7648C53.2734 42.9632 53.9299 43.0121 54.5869 43.0051C55.1421 42.9991 55.732 42.9519 56.3068 42.9058C56.413 42.8973 56.5187 42.8889 56.6236 42.8807C57.3074 42.8275 57.9637 42.7867 58.5682 42.8167C59.1734 42.8469 59.6914 42.9471 60.1087 43.1529C60.2437 43.2195 60.4354 43.3941 60.6677 43.7361C60.8927 44.0674 61.1244 44.5085 61.3582 45.039C61.8254 46.0992 62.2769 47.4604 62.6907 48.8841C63.2589 50.839 63.7399 52.8501 64.0942 54.3312C64.2591 55.0203 64.3965 55.5947 64.5024 55.9953L64.5862 56.3122L64.9102 56.3617C67.6591 56.7821 70.3591 56.21 72.89 55.6737C73.4884 55.5469 74.0773 55.4221 74.6551 55.3129C77.7214 54.7335 80.5446 54.5614 83.2713 56.4584L83.272 56.459C83.8322 56.8471 84.2254 57.165 84.4879 57.4239C84.7588 57.6912 84.8508 57.8575 84.8747 57.9367C84.8766 57.943 84.878 57.9472 84.879 57.9501C84.843 57.989 84.7412 58.0595 84.516 58.1384C84.1237 58.2759 83.5778 58.3688 82.9483 58.4759C82.8546 58.4918 82.7589 58.5081 82.6617 58.5249C81.9504 58.6477 81.1558 58.7978 80.5486 59.0736L80.5465 59.0746C79.9791 59.3355 79.4203 59.8526 78.9234 60.3123C78.8748 60.3573 78.8267 60.4017 78.7794 60.4453C78.2039 60.9748 77.693 61.4133 77.1902 61.5991C76.7889 61.746 76.4435 61.7065 75.9824 61.6537L75.9292 61.6476C75.4524 61.5933 74.8592 61.537 74.2075 61.885L21.0177 7.89372ZM72.5155 67.769C72.5222 67.7648 72.5263 67.7628 72.527 67.7626C72.5276 67.7625 72.5248 67.7644 72.5174 67.768C72.5168 67.7683 72.5162 67.7687 72.5155 67.769ZM0.469241 66.4238C0.469302 66.4238 0.47071 66.4238 0.473279 66.4241C0.470464 66.424 0.469179 66.4238 0.469241 66.4238ZM0.721622 66.6948C0.721709 66.6995 0.721441 66.7021 0.721285 66.7022C0.721129 66.7023 0.721089 66.7 0.721622 66.6948ZM13.4112 1.86923L13.4132 1.86798L13.4112 1.86923Z" fill="#D7B294" stroke="#007DC0"/>
</svg>
