<svg width="263" height="260" viewBox="0 0 263 260" fill="none" xmlns="http://www.w3.org/2000/svg">
<mask id="path-1-inside-1_81_805" fill="white">
<path d="M107.052 72.081C107.513 74.0277 108.723 78.179 110.34 79.1717C113.655 79.378 116.943 79.5972 120.205 79.8163C120.902 81.9049 119.586 94.694 120.205 95.287C126.005 95.3257 131.529 94.8229 137.171 96.3829C138.92 96.8728 142.997 99.1547 144.207 99.1289C145.654 99.0902 153.48 92.6957 154.072 92.7215C154.611 92.7472 155.058 94.81 156.15 95.1839C157.886 95.7769 159.819 94.9905 162.239 96.3055C163.673 97.0919 165.475 100.07 166.698 100.341C169.197 100.908 177.746 98.0459 179.732 99.7864C181.468 101.321 179.903 103.254 180.087 104.582C180.481 107.419 183.638 110.874 178.732 110.113C178.324 110.5 179.666 117.036 180.179 118.042C181.06 119.718 182.573 119.666 182.678 119.795C182.941 120.143 180.771 122.967 181.336 125.171C181.52 125.867 189.754 127.427 185.361 131.114C182.809 133.242 181.297 132.571 180.35 137.148C179.955 139.056 180.626 151.252 181.441 151.948C182.06 152.464 188.189 151.639 188.596 152.026C188.899 152.309 188.175 153.534 188.189 153.895C188.241 156.345 190.727 154.269 192.108 154.54C192.647 154.656 192.687 155.88 193.66 156.383C194.225 156.667 197.658 157.337 197.816 157.17C199.118 149.37 190.28 147.475 195.843 139.443C196.593 138.36 206.076 129.078 206.825 128.91C208.588 128.51 214.953 130.277 217.216 130.16C223.003 129.864 221.424 125.094 222.503 122.386C223.739 119.267 229.75 116.224 232.998 116.559C234.471 116.714 234.984 118.3 235.721 118.467C236.615 118.673 237.496 116.675 239.574 116.508C251.227 115.579 262.407 129.013 262.762 139.623C262.92 144.355 260.053 143.336 258.685 144.961C258.211 145.515 258.264 146.791 257.698 147.256C256.975 147.849 255.41 146.611 255.042 146.856C254.897 146.959 254.594 149.228 254.016 150.053C253.24 151.162 251.911 151.355 251.385 152C249.715 154.037 248.294 156.731 249.215 159.361C249.531 160.264 250.991 160.199 251.135 160.831C251.385 161.953 250.28 163.783 250.359 165.24C250.465 166.955 252.109 167.677 251.635 169.572C250.543 173.955 246.098 173.04 245.822 173.285C245.204 173.852 246.506 177.72 246.506 178.79C246.506 180.582 244.296 183.753 242.876 184.901C239.127 187.931 236.181 185.545 241.219 192.314L238.588 192.636C238.312 194.673 240.324 195.627 240.561 197.522C240.784 199.289 239.877 200.604 239.877 202.009C239.877 202.782 239.969 207.436 240.035 207.72C240.258 208.623 242.994 209.435 242.534 210.028C238.549 212.632 235.734 210.853 231.67 211.317C225.515 212.013 224.878 220.613 230.652 221.116L229.381 221.631C228.303 224.544 223.381 221.068 222.658 218.877C221.869 214.184 217.926 212.718 214.664 213.839C207.851 217.024 201.854 217.596 210.363 208.416C207.575 203.027 206.207 203.427 206.273 209.641C204.918 212.245 198.566 209.074 196.119 207.746C194.16 203.775 183.302 199.146 180.974 202.085C179.975 203.349 179.588 205.911 180.403 207.123C184.665 208.721 180.218 214.772 176.72 218.137C174.984 219.8 167.066 225.473 165.054 225.756C159.214 224.39 161.77 221.324 161.56 226.713C173.213 228.118 173.908 242.479 162.702 244.064C157.362 237.695 150.692 232.783 148.837 241.846C140.406 246.9 132.107 252.134 123.927 257.561C117.206 258.941 104.909 258.116 98.5034 255.782L94.7517 253.02L95.8938 243.505C95.2362 241.339 95.1652 237.926 96.2437 237.629C94.3366 237.861 94.7944 239.976 93.0715 240.582C91.5064 243.496 89.7045 246.087 87.6659 248.369C83.9175 248.588 83.0434 248.973 79.3345 249.102C77.4143 259.196 69.7052 262.384 66.7723 257.498C64.9441 249.002 66.3724 243.792 58.0733 239.345L57.3894 236.637C58.0339 230.243 56.6529 227.394 53.2727 228.077C52.6677 223.629 52.0496 218.047 55.3245 214.36L62.966 205.49C65.5306 201.145 64.8336 200.036 60.3487 198.618C59.3359 198.296 58.7178 198.657 57.8498 199.301C55.7848 203.827 42.7626 210.978 39.9348 209.921C37.3175 208.942 28.5465 197.935 28.5728 195.795C29.5855 181.678 30.3352 167.548 30.8087 153.431C30.7824 152 30.4799 148.854 28.7175 149.151C23.2856 152.451 21.6547 152.335 17.1698 147.449C15.9993 146.456 14.5788 146.314 12.9085 147.062C8.00268 144.613 -0.677798 134.002 0.676885 128.356C1.78167 126.873 10.6463 116.379 11.4617 116.34C11.7642 116.327 12.0536 116.417 12.3561 116.533C15.3285 118.171 25.3242 119.473 27.0209 116.366C28.3229 113.981 30.8218 103.525 30.8218 100.74C30.8218 97.685 28.8227 95.1839 28.8359 93.6497C28.8359 92.2444 30.2826 91.2389 30.059 88.5831C29.9143 86.8039 26.8499 78.4627 27.4812 77.8567C29.3357 76.0905 29.9538 80.3063 30.1379 80.4223C30.664 80.7833 32.2291 79.623 33.3865 80.0871C35.9644 81.1185 35.5435 85.6694 40.686 80.1515C41.6856 79.0815 42.1065 76.9672 43.0271 76.6449C47.4989 75.072 49.4191 81.2087 51.5893 81.6213C52.6677 81.8275 57.008 78.6303 57.1264 77.5215C57.2579 76.3097 56.2846 75.0978 56.7318 74.002C57.442 72.2873 63.6105 68.3552 64.1891 66.4342C64.7678 64.5133 63.0317 60.6327 63.7025 59.8592C64.4653 58.9825 70.4759 59.6529 71.2519 58.5571C72.12 57.3452 71.2256 53.1166 71.5413 51.4277C72.2646 50.7315 80.1428 53.426 83.3914 49.829C84.825 48.2433 83.2994 45.8067 84.6409 43.9631C86.2455 41.7585 97.9773 39.5668 96.9382 34.0103C96.1623 29.8719 91.1513 24.1477 92.0588 19.6741C92.1903 19.0037 94.4262 14.311 94.8339 13.9887C96.6094 12.5834 103.488 12.1064 105.369 10.7785C106.526 9.95339 106.211 8.58681 106.487 8.34186C107.026 7.85196 111.564 8.57392 113.168 8.1098C114.773 7.64568 116.259 4.64179 117.587 4.06164C119.179 3.37836 120.836 4.02297 122.375 3.59752C124.834 2.91424 124.519 -1.24995 129.359 1.53477C130.332 2.10203 134.79 7.2976 135.067 8.22584C135.658 10.1597 134.304 13.7824 134.83 16.7992C135.79 22.2655 141.524 26.0042 137.329 33.0949C132.357 36.3825 123.085 51.028 118.547 52.7169C116.351 53.5291 107.473 54.1737 106.684 55.2695C106.368 60.7745 105.79 66.7565 107.052 72.0681V72.081Z"/>
</mask>
<path d="M107.052 72.081C107.513 74.0277 108.723 78.179 110.34 79.1717C113.655 79.378 116.943 79.5972 120.205 79.8163C120.902 81.9049 119.586 94.694 120.205 95.287C126.005 95.3257 131.529 94.8229 137.171 96.3829C138.92 96.8728 142.997 99.1547 144.207 99.1289C145.654 99.0902 153.48 92.6957 154.072 92.7215C154.611 92.7472 155.058 94.81 156.15 95.1839C157.886 95.7769 159.819 94.9905 162.239 96.3055C163.673 97.0919 165.475 100.07 166.698 100.341C169.197 100.908 177.746 98.0459 179.732 99.7864C181.468 101.321 179.903 103.254 180.087 104.582C180.481 107.419 183.638 110.874 178.732 110.113C178.324 110.5 179.666 117.036 180.179 118.042C181.06 119.718 182.573 119.666 182.678 119.795C182.941 120.143 180.771 122.967 181.336 125.171C181.52 125.867 189.754 127.427 185.361 131.114C182.809 133.242 181.297 132.571 180.35 137.148C179.955 139.056 180.626 151.252 181.441 151.948C182.06 152.464 188.189 151.639 188.596 152.026C188.899 152.309 188.175 153.534 188.189 153.895C188.241 156.345 190.727 154.269 192.108 154.54C192.647 154.656 192.687 155.88 193.66 156.383C194.225 156.667 197.658 157.337 197.816 157.17C199.118 149.37 190.28 147.475 195.843 139.443C196.593 138.36 206.076 129.078 206.825 128.91C208.588 128.51 214.953 130.277 217.216 130.16C223.003 129.864 221.424 125.094 222.503 122.386C223.739 119.267 229.75 116.224 232.998 116.559C234.471 116.714 234.984 118.3 235.721 118.467C236.615 118.673 237.496 116.675 239.574 116.508C251.227 115.579 262.407 129.013 262.762 139.623C262.92 144.355 260.053 143.336 258.685 144.961C258.211 145.515 258.264 146.791 257.698 147.256C256.975 147.849 255.41 146.611 255.042 146.856C254.897 146.959 254.594 149.228 254.016 150.053C253.24 151.162 251.911 151.355 251.385 152C249.715 154.037 248.294 156.731 249.215 159.361C249.531 160.264 250.991 160.199 251.135 160.831C251.385 161.953 250.28 163.783 250.359 165.24C250.465 166.955 252.109 167.677 251.635 169.572C250.543 173.955 246.098 173.04 245.822 173.285C245.204 173.852 246.506 177.72 246.506 178.79C246.506 180.582 244.296 183.753 242.876 184.901C239.127 187.931 236.181 185.545 241.219 192.314L238.588 192.636C238.312 194.673 240.324 195.627 240.561 197.522C240.784 199.289 239.877 200.604 239.877 202.009C239.877 202.782 239.969 207.436 240.035 207.72C240.258 208.623 242.994 209.435 242.534 210.028C238.549 212.632 235.734 210.853 231.67 211.317C225.515 212.013 224.878 220.613 230.652 221.116L229.381 221.631C228.303 224.544 223.381 221.068 222.658 218.877C221.869 214.184 217.926 212.718 214.664 213.839C207.851 217.024 201.854 217.596 210.363 208.416C207.575 203.027 206.207 203.427 206.273 209.641C204.918 212.245 198.566 209.074 196.119 207.746C194.16 203.775 183.302 199.146 180.974 202.085C179.975 203.349 179.588 205.911 180.403 207.123C184.665 208.721 180.218 214.772 176.72 218.137C174.984 219.8 167.066 225.473 165.054 225.756C159.214 224.39 161.77 221.324 161.56 226.713C173.213 228.118 173.908 242.479 162.702 244.064C157.362 237.695 150.692 232.783 148.837 241.846C140.406 246.9 132.107 252.134 123.927 257.561C117.206 258.941 104.909 258.116 98.5034 255.782L94.7517 253.02L95.8938 243.505C95.2362 241.339 95.1652 237.926 96.2437 237.629C94.3366 237.861 94.7944 239.976 93.0715 240.582C91.5064 243.496 89.7045 246.087 87.6659 248.369C83.9175 248.588 83.0434 248.973 79.3345 249.102C77.4143 259.196 69.7052 262.384 66.7723 257.498C64.9441 249.002 66.3724 243.792 58.0733 239.345L57.3894 236.637C58.0339 230.243 56.6529 227.394 53.2727 228.077C52.6677 223.629 52.0496 218.047 55.3245 214.36L62.966 205.49C65.5306 201.145 64.8336 200.036 60.3487 198.618C59.3359 198.296 58.7178 198.657 57.8498 199.301C55.7848 203.827 42.7626 210.978 39.9348 209.921C37.3175 208.942 28.5465 197.935 28.5728 195.795C29.5855 181.678 30.3352 167.548 30.8087 153.431C30.7824 152 30.4799 148.854 28.7175 149.151C23.2856 152.451 21.6547 152.335 17.1698 147.449C15.9993 146.456 14.5788 146.314 12.9085 147.062C8.00268 144.613 -0.677798 134.002 0.676885 128.356C1.78167 126.873 10.6463 116.379 11.4617 116.34C11.7642 116.327 12.0536 116.417 12.3561 116.533C15.3285 118.171 25.3242 119.473 27.0209 116.366C28.3229 113.981 30.8218 103.525 30.8218 100.74C30.8218 97.685 28.8227 95.1839 28.8359 93.6497C28.8359 92.2444 30.2826 91.2389 30.059 88.5831C29.9143 86.8039 26.8499 78.4627 27.4812 77.8567C29.3357 76.0905 29.9538 80.3063 30.1379 80.4223C30.664 80.7833 32.2291 79.623 33.3865 80.0871C35.9644 81.1185 35.5435 85.6694 40.686 80.1515C41.6856 79.0815 42.1065 76.9672 43.0271 76.6449C47.4989 75.072 49.4191 81.2087 51.5893 81.6213C52.6677 81.8275 57.008 78.6303 57.1264 77.5215C57.2579 76.3097 56.2846 75.0978 56.7318 74.002C57.442 72.2873 63.6105 68.3552 64.1891 66.4342C64.7678 64.5133 63.0317 60.6327 63.7025 59.8592C64.4653 58.9825 70.4759 59.6529 71.2519 58.5571C72.12 57.3452 71.2256 53.1166 71.5413 51.4277C72.2646 50.7315 80.1428 53.426 83.3914 49.829C84.825 48.2433 83.2994 45.8067 84.6409 43.9631C86.2455 41.7585 97.9773 39.5668 96.9382 34.0103C96.1623 29.8719 91.1513 24.1477 92.0588 19.6741C92.1903 19.0037 94.4262 14.311 94.8339 13.9887C96.6094 12.5834 103.488 12.1064 105.369 10.7785C106.526 9.95339 106.211 8.58681 106.487 8.34186C107.026 7.85196 111.564 8.57392 113.168 8.1098C114.773 7.64568 116.259 4.64179 117.587 4.06164C119.179 3.37836 120.836 4.02297 122.375 3.59752C124.834 2.91424 124.519 -1.24995 129.359 1.53477C130.332 2.10203 134.79 7.2976 135.067 8.22584C135.658 10.1597 134.304 13.7824 134.83 16.7992C135.79 22.2655 141.524 26.0042 137.329 33.0949C132.357 36.3825 123.085 51.028 118.547 52.7169C116.351 53.5291 107.473 54.1737 106.684 55.2695C106.368 60.7745 105.79 66.7565 107.052 72.0681V72.081Z" fill="#9F86E4" stroke="#007DC0" stroke-width="2" mask="url(#path-1-inside-1_81_805)"/>
</svg>
