<svg width="128" height="166" viewBox="0 0 128 166" fill="none" xmlns="http://www.w3.org/2000/svg">
<path d="M1.60968 6.03165C1.73958 5.6264 1.89858 5.34498 2.07427 5.16394L2.54351 5.8532L2.73397 4.59302C2.7774 4.30568 2.83442 4.0812 2.92967 3.89541C2.9336 3.8934 2.93783 3.89127 2.94236 3.88902C3.01532 3.85281 3.12817 3.80557 3.28431 3.74818C3.59411 3.63431 4.03057 3.49632 4.56156 3.342C5.62099 3.03408 7.02366 2.67062 8.46755 2.31759C11.3696 1.60803 14.3694 0.957481 15.0775 0.877C16.1823 0.762749 19.2911 0.974442 22.1022 1.60273C23.5059 1.91645 24.7902 2.32466 25.6945 2.82297C26.6377 3.34266 26.9678 3.84174 26.9282 4.27991L26.9127 4.45128L27.0059 4.59589L29.3736 8.26756C29.2882 8.57205 29.1904 8.88284 29.092 9.19569C29.0327 9.38452 28.973 9.5741 28.9158 9.7635C28.7526 10.303 28.5967 10.8751 28.5994 11.3112C28.6007 11.526 28.6393 11.8176 28.845 12.0418C29.0769 12.2943 29.3954 12.3337 29.6685 12.2937C29.933 12.255 30.2297 12.1352 30.5538 11.9621C30.7848 11.8387 31.0458 11.6794 31.34 11.482C32.6356 13.1528 34.1182 14.3536 35.7906 15.0591C37.551 15.8017 39.4887 15.9817 41.5845 15.6212C41.7408 15.704 41.9694 15.8781 42.2669 16.1765C42.6209 16.5318 43.026 17.015 43.4623 17.5963C44.334 18.7575 45.3037 20.2742 46.2056 21.8539C47.1073 23.4331 47.9342 25.0629 48.5233 26.4476C48.818 27.1403 49.0499 27.764 49.2022 28.2846C49.3172 28.6781 49.3788 28.9868 49.3972 29.2109C48.8215 29.7006 48.4138 30.4073 48.1365 31.1627C47.8234 32.0156 47.6583 32.9794 47.6183 33.8896C47.5784 34.797 47.6616 35.6825 47.8681 36.3769C47.971 36.7231 48.1117 37.0461 48.3024 37.3025C48.4938 37.5599 48.7625 37.7839 49.1189 37.8471L49.121 37.8475C49.2846 37.8758 49.4153 37.8232 49.479 37.7915C49.5496 37.7565 49.607 37.7124 49.6484 37.6769C49.7321 37.605 49.8137 37.5129 49.8886 37.4195C50.0416 37.2286 50.2214 36.9631 50.4132 36.6538C50.7992 36.0312 51.2627 35.1841 51.7012 34.2856C52.1395 33.3875 52.5589 32.4257 52.8525 31.5741C52.9992 31.1486 53.1176 30.7418 53.1903 30.3789C53.2589 30.0365 53.2951 29.694 53.2525 29.3998C53.2201 28.8402 53.3488 28.53 53.524 28.3337C53.7149 28.1199 54.0319 27.9603 54.5258 27.8463C55.0181 27.7326 55.6139 27.6793 56.3068 27.6244C56.3582 27.6204 56.4099 27.6163 56.4621 27.6122C57.0987 27.5622 57.7995 27.5072 58.5082 27.3945C61.0134 27.095 62.8505 26.6079 64.1752 25.8533C65.5258 25.0839 66.3243 24.0473 66.7613 22.7174C67.1888 21.4164 67.2648 19.8501 67.2262 18.0229C67.2068 17.1088 67.1581 16.1146 67.1055 15.0423L67.1048 15.0271C67.0601 14.1167 67.0127 13.1476 66.9773 12.1136L71.8689 12.7495L72.0152 12.7685L72.1484 12.7051C73.207 12.2009 75.1286 11.935 77.1434 11.9414C79.1527 11.9478 81.1208 12.2243 82.2577 12.713L82.2795 12.7223L82.302 12.7296L82.7806 12.8836C82.6906 13.5117 82.6248 14.0357 82.608 14.4695C82.5878 14.9944 82.6342 15.4634 82.8547 15.861C83.0827 16.2722 83.4516 16.528 83.901 16.7233C84.3408 16.9144 84.9159 17.0716 85.6201 17.2505L85.6384 17.2552L85.657 17.2584C85.754 17.2754 85.8401 17.2915 85.9136 17.3067C86.1111 22.667 86.1069 28.7165 85.9012 34.048L85.8984 34.1205L85.6791 34.1187L85.5608 34.4562L85.2714 35.2813L84.9105 36.3103L85.9258 35.9122C86.2315 35.7924 86.5174 35.666 86.7543 35.5333C86.941 35.4287 87.1383 35.2983 87.2849 35.1341C97.5894 35.2531 108.073 35.78 118.737 36.7037C119.136 37.7707 119.617 38.7717 120.101 39.7292C120.233 39.9912 120.365 40.249 120.495 40.5038C120.891 41.2767 121.272 42.0222 121.608 42.7743C122.493 44.7586 123.013 46.6919 122.502 48.9321L122.456 49.1327L122.564 49.3075C123.253 50.4146 124.52 51.6253 125.551 52.6104C125.676 52.7292 125.797 52.8447 125.913 52.9564C126.461 53.4839 126.889 53.9134 127.121 54.2259C126.837 54.2959 126.597 54.373 126.397 54.4594C126.124 54.577 125.893 54.725 125.731 54.926C125.365 55.3812 125.513 55.8827 125.619 56.1748C125.653 56.2711 125.686 56.3552 125.716 56.4314C125.796 56.6375 125.854 56.7852 125.864 56.9588C125.874 57.1206 125.839 57.3344 125.512 57.6253L125.212 57.892L125.407 58.2423C126.349 59.9313 126.278 61.3631 125.632 62.7109C124.966 64.1028 123.676 65.4239 122.119 66.8074C121.623 67.2477 121.099 67.6953 120.565 68.1514C119.454 69.1008 118.299 70.0866 117.271 71.1186C115.811 72.5839 114.534 74.2055 113.895 76.0841L113.3 76.2194C113.179 76.2316 113.033 76.2643 112.887 76.3016C112.709 76.3472 112.491 76.4107 112.242 76.4885C111.743 76.6442 111.1 76.8625 110.368 77.1232C108.903 77.645 107.064 78.3418 105.257 79.0607C103.452 79.7793 101.673 80.5225 100.332 81.1371C99.663 81.4437 99.0936 81.7225 98.6819 81.953C98.4776 82.0673 98.2991 82.177 98.1633 82.2781C98.096 82.3282 98.0267 82.3854 97.9674 82.4487C97.9196 82.4997 97.8236 82.6106 97.7887 82.771L97.7716 82.85L97.7802 82.9303C98.1026 85.9506 100.598 88.0342 103.028 89.7779C103.449 90.0798 103.867 90.3709 104.277 90.6562C105.085 91.2187 105.861 91.7589 106.561 92.3154C107.614 93.1524 108.41 93.9626 108.806 94.819C108.893 95.0096 109.063 95.55 109.274 96.3207C109.481 97.0728 109.716 97.9998 109.937 98.9264C110.158 99.8532 110.364 100.775 110.511 101.518C110.585 101.89 110.644 102.212 110.682 102.466C110.723 102.736 110.735 102.887 110.733 102.941L110.733 102.942C110.733 102.942 110.726 102.996 110.68 103.127C110.638 103.246 110.575 103.395 110.495 103.568C110.335 103.914 110.116 104.331 109.879 104.752C109.399 105.607 108.886 106.408 108.684 106.646C107.156 108.391 104.771 108.936 102.02 109.322C101.611 109.38 101.194 109.433 100.771 109.488C98.4257 109.791 95.9303 110.113 93.8529 111.182C90.3315 112.995 88.5802 115.163 86.6678 117.531C85.966 118.399 85.2425 119.295 84.4018 120.21L84.4013 120.211C84.0032 120.645 83.4423 121.094 82.7964 121.559C82.4031 121.843 81.9978 122.119 81.5885 122.398C81.3199 122.581 81.0496 122.765 80.7799 122.954C80.116 123.417 79.4728 123.893 78.9787 124.372C78.4988 124.837 78.0793 125.38 78.0005 125.989L78.0003 125.99C77.8711 127.007 78.0239 128.338 78.3361 129.776C78.6507 131.224 79.1372 132.826 79.7062 134.403C80.8406 137.548 82.3247 140.656 83.4785 142.313L83.4787 142.313C83.9576 143 85.0623 144.072 86.3837 145.278C87.3041 146.119 88.357 147.049 89.4255 147.992C89.9089 148.419 90.3954 148.848 90.8743 149.274C92.4179 150.645 93.8826 151.973 94.9378 153.05C95.4669 153.59 95.8794 154.052 96.1457 154.417C96.2651 154.58 96.3456 154.711 96.3941 154.811C95.3047 155.674 93.8989 156.064 92.356 156.4C92.137 156.447 91.9146 156.494 91.6901 156.541C90.2777 156.838 88.784 157.151 87.5379 157.847C87.3027 157.979 87.019 158.201 86.7182 158.463C86.4105 158.73 86.0595 159.061 85.685 159.429C84.936 160.164 84.0759 161.062 83.252 161.928C83.1428 162.042 83.0342 162.157 82.9266 162.27C82.2194 163.013 81.5545 163.712 81.0193 164.249C80.7102 164.559 80.4525 164.806 80.2595 164.973C80.2571 164.976 80.2547 164.978 80.2523 164.98C79.9257 164.639 79.5706 164.334 79.2357 164.054C79.1795 164.007 79.124 163.96 79.0693 163.915C78.6833 163.593 78.3365 163.303 78.0503 162.999C77.7281 162.656 77.5235 162.334 77.445 161.992C77.369 161.662 77.3977 161.252 77.6589 160.703L77.9381 160.117L77.2997 159.997C75.6548 159.688 74.3716 160.006 73.3427 160.26C73.1322 160.312 72.9324 160.362 72.7423 160.402C72.1735 160.525 71.7018 160.574 71.2364 160.468C70.7789 160.365 70.2729 160.1 69.6714 159.492L69.3791 159.197L69.0353 159.43C68.8735 159.54 68.7432 159.559 68.6292 159.544C68.5017 159.527 68.3488 159.461 68.1715 159.324C67.8087 159.044 67.4633 158.564 67.1804 158.092L67.0018 157.793L66.6598 157.857L63.7532 158.398L63.7143 158.405L63.6771 158.419C62.2714 158.919 61.2075 158.928 60.4082 158.659C59.6142 158.391 59.0132 157.825 58.573 157.039C57.6761 155.437 57.5005 153.005 57.7778 150.818L57.8429 150.304L57.3272 150.257C55.2015 150.063 53.0401 149.88 50.8434 149.72L50.7515 148.486C51.1502 147.3 51.3561 146.266 51.342 145.397C51.3275 144.498 51.0752 143.735 50.5147 143.191C49.9589 142.651 49.1732 142.398 48.2396 142.358C47.3468 142.32 46.2747 142.474 45.0352 142.801L43.4674 142.129C41.5459 140.772 39.8998 139.623 38.1234 138.978C36.427 138.363 34.6332 138.213 32.3775 138.705C32.113 137.747 31.6412 137.003 31.0182 136.478C30.2899 135.863 29.3903 135.579 28.4632 135.574C26.7026 135.563 24.8152 136.552 23.6039 138.267C23.4688 138.229 23.3203 138.132 23.1577 137.944C22.9113 137.66 22.6908 137.227 22.5276 136.722C22.3659 136.222 22.2715 135.686 22.255 135.221C22.2376 134.733 22.3092 134.409 22.3953 134.267L22.6144 133.907L22.2955 133.63L21.6116 133.037L21.348 132.809L21.0426 132.977C20.8575 133.079 20.7082 133.157 20.5949 133.206C19.7549 132.409 19.2003 131.79 18.8856 131.297C18.5478 130.769 18.5543 130.497 18.6203 130.339C18.7023 130.142 18.9592 129.895 19.5952 129.608C20.2106 129.33 21.0687 129.062 22.181 128.752L22.6672 128.617L22.5273 128.132C20.5778 121.374 19.7136 114.492 19.9346 107.472C22.3193 105.635 24.1752 103.38 25.5092 100.69C26.4673 100.528 27.1824 100.041 27.5271 99.178C27.8596 98.3458 27.8061 97.2542 27.4739 95.9698C28.5108 94.6843 30.0773 93.7407 32.2137 93.1577L32.687 93.0285L32.5668 92.5529C31.3833 87.8673 30.5016 85.0598 28.6446 83.13C26.7854 81.1979 24.0062 80.2041 19.2729 78.9014L19.2559 78.8967L19.2386 78.8932L11.9644 77.4331L12.5103 70.0865L12.5241 69.9007L12.413 69.7512C11.267 68.209 9.52028 65.4341 8.43115 62.66C7.8862 61.2719 7.51714 59.912 7.45626 58.7219C7.39703 57.5639 7.63087 56.6229 8.21407 55.9519C9.98578 54.9312 11.4471 53.9778 12.518 53.0445C13.5958 52.105 14.3384 51.1346 14.5489 50.0771C14.7657 48.9882 14.3975 47.9265 13.5236 46.8711C12.7014 45.878 11.4016 44.8506 9.60865 43.7406C9.86189 41.9029 9.73845 40.418 9.13735 39.3781C9.90529 35.8529 10.0527 32.8511 9.62267 29.9475C9.18498 26.9921 8.15304 24.1656 6.60773 21.0191L6.56717 20.9365L6.49988 20.8738C5.59863 20.0336 4.55963 18.742 3.67051 17.3295C2.77926 15.9136 2.06487 14.4177 1.78005 13.1736C1.53771 12.1108 1.26078 10.1472 1.29601 8.36523C1.31367 7.47222 1.40939 6.65654 1.60968 6.03165ZM2.88615 3.9198C2.88657 3.91951 2.88726 3.91905 2.88825 3.91842C2.88336 3.92216 2.88212 3.92257 2.88615 3.9198ZM85.9012 16.9786C85.9013 16.9793 85.9013 16.98 85.9013 16.9807C85.9012 16.9794 85.9012 16.978 85.9011 16.9766L85.9012 16.9786Z" fill="#CBE290" stroke="#007DC0"/>
</svg>
