<svg width="107" height="144" viewBox="0 0 107 144" fill="none" xmlns="http://www.w3.org/2000/svg">
<path d="M8.50188 61.7968C7.77186 62.8235 6.45574 64.7058 5.19648 66.5427C4.40394 67.6987 3.63636 68.8332 3.05365 69.7217C2.76203 70.1664 2.51879 70.5464 2.34249 70.8353C2.25415 70.98 2.18493 71.0982 2.13558 71.1882C2.09488 71.2624 2.07722 71.3006 2.07163 71.3127C2.06953 71.3173 2.06914 71.3181 2.06987 71.3158L2.06971 71.3163C1.15919 74.1929 1.4804 75.0685 1.91688 75.5392C2.12425 75.7627 2.37521 75.924 2.70251 76.1343C2.7967 76.1949 2.89721 76.2595 3.00482 76.3308C3.46134 76.6333 3.97193 77.0187 4.39134 77.6591C4.75162 78.2038 4.91133 78.9417 5.03745 79.5243C5.04859 79.5758 5.05947 79.6261 5.07021 79.6749C5.14164 79.9997 5.20633 80.2701 5.28793 80.4844C5.37226 80.7058 5.44741 80.7912 5.49065 80.8205L5.49625 80.8243C5.55215 80.8634 5.73566 80.9397 6.10878 81.0282C6.45782 81.111 6.90983 81.1911 7.44212 81.2694C8.50591 81.4259 9.84984 81.5699 11.2528 81.7168C11.3675 81.7288 11.4826 81.7408 11.598 81.7529C12.8882 81.8877 14.2092 82.0258 15.3732 82.178C16.6297 82.3423 17.7468 82.5281 18.451 82.7571L18.4517 82.7573C20.3754 83.3859 21.8524 84.8427 22.7941 86.5637C23.735 88.283 24.165 90.306 23.9623 92.131C23.8977 92.7323 23.538 93.5329 23.1082 94.3502C22.7004 95.1255 22.1882 95.9897 21.6882 96.8332C21.6462 96.9041 21.6043 96.9747 21.5625 97.0452C21.0188 97.9631 20.5025 98.8436 20.1387 99.5807C19.9567 99.9493 19.8202 100.268 19.7377 100.527C19.6684 100.744 19.6512 100.879 19.6517 100.95C19.6611 100.964 19.6735 100.982 19.6897 101.004C19.749 101.086 19.8388 101.199 19.9597 101.342C20.2004 101.626 20.5426 102.004 20.9576 102.446C21.7864 103.33 22.8889 104.455 24.0107 105.574C25.1321 106.692 26.2696 107.802 27.1676 108.654C27.6168 109.08 28.004 109.44 28.2982 109.704C28.4456 109.836 28.5669 109.941 28.6595 110.018C28.7431 110.087 28.7847 110.117 28.7958 110.125C28.7986 110.127 28.7995 110.128 28.7986 110.127L28.5552 110.564M8.50188 61.7968L65.0658 23.129C65.033 22.5988 65.1542 21.9305 65.2863 21.202C65.4721 20.1769 65.6796 19.0325 65.5104 17.985L66.0044 17.9075C66.0043 17.9071 66.0043 17.9068 66.0042 17.9064C65.9201 17.3726 65.5877 17.0802 65.3063 16.8607C65.2567 16.8221 65.2079 16.785 65.1596 16.7482C64.9267 16.5711 64.7065 16.4036 64.4838 16.1266C64.1878 15.7507 63.8717 14.9275 63.6057 13.7823C63.3456 12.6623 63.1504 11.3125 63.0541 9.95645C62.9578 8.59919 62.9617 7.25271 63.0929 6.13702C63.1584 5.5791 63.2545 5.0901 63.3805 4.6914C63.5039 4.30115 63.6464 4.02817 63.7911 3.85924C63.7998 3.8546 63.8368 3.83186 63.9237 3.79537C64.0465 3.74384 64.2204 3.68418 64.4463 3.61772C64.8964 3.4853 65.5118 3.33777 66.2492 3.18088C67.7216 2.86763 69.6445 2.52463 71.6249 2.19705C75.1266 1.61785 78.7886 1.09011 80.4138 0.864707C80.4121 1.11996 80.388 1.39844 80.3566 1.69754C80.3503 1.75763 80.3437 1.81894 80.3369 1.88116C80.2907 2.30693 80.2398 2.77514 80.2675 3.18307C80.2997 3.65874 80.4473 4.19849 80.9649 4.51586C81.4153 4.79203 82.0297 4.82205 82.7891 4.68502C83.1105 4.86684 83.3998 5.37591 83.3998 6.60119V6.90189L83.6655 7.04285C85.7065 8.12605 86.9744 9.11413 87.6617 10.0141C88.3296 10.8888 88.4389 11.6608 88.2 12.4005C87.947 13.1834 87.2799 14.0054 86.2234 14.8825C85.1754 15.7526 83.7974 16.6342 82.2036 17.5517L82.1505 17.5822L82.1064 17.6247C81.2209 18.4768 81.023 19.7741 81.152 21.1328C81.2825 22.507 81.7569 24.0663 82.3689 25.5908C83.5443 28.519 85.2723 31.4284 86.2637 32.8619C85.7646 35.6249 85.7202 38.1474 86.1576 40.4341L86.2216 40.7686L86.5563 40.8315L93.8058 42.1936C98.1543 43.4554 100.899 44.3886 102.72 46.1615C104.457 47.8524 105.414 50.3774 105.943 54.9649C104.051 55.1998 102.626 55.8672 101.794 57.0589C100.963 58.2505 100.808 59.849 101.202 61.7657C99.3535 62.2929 97.9871 63.8499 97.0528 66.253C95.293 67.3547 94.2716 68.2967 93.7638 69.5276C93.2534 70.7649 93.2994 72.2201 93.4228 74.2131L93.4228 74.2135C93.7351 79.187 94.626 85.5603 96.6047 90.1318L96.4108 90.6497C95.2159 90.7064 94.3149 90.8313 93.6831 91.0516C93.3351 91.1729 93.0335 91.3348 92.8099 91.5613C92.5755 91.7986 92.4468 92.0873 92.4251 92.4088C92.4044 92.7149 92.4824 93.0213 92.6032 93.313C92.7249 93.6068 92.9027 93.9152 93.1152 94.235C93.4907 94.8003 94.008 95.4497 94.5969 96.1752L94.2959 96.6547C94.1936 96.7512 94.0955 96.8503 94.0042 96.9426L94.0006 96.9462C93.9177 97.0299 93.8401 97.1082 93.7632 97.182C92.8743 97.4959 91.0457 98.3887 89.3949 99.3546C88.5295 99.861 87.693 100.399 87.0506 100.899C86.7301 101.148 86.4462 101.397 86.229 101.636C86.0247 101.86 85.8252 102.134 85.7642 102.432L85.7637 102.435C85.7031 102.74 85.7632 103.141 85.8523 103.535C85.9471 103.955 86.0976 104.459 86.2824 105.013C86.6523 106.123 87.1748 107.481 87.708 108.859L87.7995 109.096C88.3054 110.403 88.8151 111.72 89.2185 112.875C89.6524 114.118 89.9412 115.114 89.9909 115.699L89.9911 115.7C90.0607 116.493 89.7458 117.204 89.1302 117.875C88.5072 118.553 87.6036 119.156 86.5795 119.702C85.5595 120.245 84.4549 120.714 83.4464 121.139L83.3191 121.192C82.3785 121.588 81.5026 121.956 80.9213 122.305C80.7599 122.401 80.5445 122.572 80.3112 122.769C80.0695 122.974 79.7817 123.231 79.4669 123.519C78.8967 124.04 78.2265 124.674 77.5633 125.3L77.3568 125.496C76.6249 126.187 75.9161 126.855 75.3637 127.349C75.0867 127.597 74.8561 127.795 74.6852 127.929C74.6799 127.933 74.6747 127.937 74.6696 127.941C74.5362 127.802 74.4002 127.606 74.257 127.352C74.109 127.089 73.9774 126.811 73.8376 126.515C73.7675 126.366 73.6953 126.213 73.618 126.056C73.4011 125.615 73.1448 125.142 72.8097 124.796C72.4558 124.431 71.9818 124.177 71.3742 124.263L71.3701 124.264C71.2942 124.275 71.2269 124.301 71.19 124.316C71.1447 124.334 71.0965 124.356 71.0484 124.38C70.9519 124.428 70.8342 124.491 70.7018 124.566C70.4359 124.717 70.0891 124.927 69.6912 125.174C68.8941 125.67 67.8763 126.328 66.8579 127.002C65.8395 127.677 64.8172 128.369 64.0112 128.934C63.6085 129.216 63.2572 129.468 62.9865 129.67C62.7326 129.86 62.5118 130.034 62.4012 130.152C61.9486 130.629 61.7149 131.408 61.5774 132.218C61.4356 133.055 61.3799 134.038 61.3601 135.025C61.3442 135.813 61.351 136.617 61.3573 137.363C61.3589 137.553 61.3605 137.739 61.3616 137.919C61.3652 138.48 61.3647 138.987 61.3505 139.417C59.6846 138.698 58.4818 138.344 57.5899 138.284C57.0782 138.249 56.6417 138.31 56.271 138.475C55.8947 138.644 55.6241 138.904 55.4212 139.206C55.224 139.499 55.089 139.835 54.9771 140.162C54.9206 140.327 54.8674 140.498 54.8152 140.666L54.812 140.676C54.7603 140.842 54.7091 141.007 54.6533 141.173C54.4442 141.795 54.1836 142.389 53.7006 142.895C53.5218 142.887 53.2501 142.849 52.9015 142.771C52.4519 142.672 51.932 142.52 51.4351 142.346C50.9361 142.17 50.476 141.976 50.1407 141.795C49.9717 141.703 49.8501 141.624 49.7741 141.561C49.7581 141.547 49.746 141.536 49.7371 141.528C49.7095 141.314 49.7279 140.913 49.7958 140.325C49.8527 139.832 49.9368 139.26 50.0279 138.64C50.0516 138.478 50.0758 138.314 50.1001 138.146C50.3314 136.555 50.5767 134.71 50.4517 133.363L50.4517 133.362C50.2662 131.389 49.546 129.581 48.844 127.888C48.804 127.792 48.7641 127.696 48.7243 127.6C48.0563 125.993 47.4346 124.497 47.2272 122.965C47.1376 122.289 47.1278 121.246 47.1534 120.002C47.1687 119.253 47.1962 118.451 47.2244 117.63C47.2429 117.091 47.2616 116.545 47.2774 116C47.3169 114.635 47.3372 113.294 47.2828 112.187C47.2555 111.633 47.2091 111.127 47.1342 110.699C47.0615 110.285 46.954 109.895 46.7768 109.607C46.4717 109.108 46.0908 108.746 45.6424 108.516C45.1963 108.286 44.712 108.201 44.2196 108.21C43.2531 108.227 42.1973 108.611 41.1863 109.071C40.6741 109.304 40.1579 109.565 39.6553 109.821C39.5792 109.86 39.5034 109.899 39.4281 109.937C39.0024 110.155 38.5886 110.367 38.1866 110.559C37.2219 111.022 36.4136 111.329 35.7954 111.354L35.7934 111.354C35.5425 111.365 35.0377 111.329 34.3744 111.251C33.7232 111.175 32.9514 111.063 32.185 110.933C31.4182 110.803 30.6627 110.656 30.0432 110.509C29.3998 110.357 28.967 110.22 28.7963 110.126L28.5552 110.564M8.50188 61.7968L8.94051 61.199C9.87819 59.9213 10.8119 58.5066 11.7658 57.0613C11.9785 56.7389 12.1923 56.415 12.4074 56.0907C13.5909 54.3062 14.8183 52.503 16.1545 50.8378C18.7365 47.6202 21.6814 44.9743 25.4101 43.9853C25.8002 44.9311 26.6159 46.7313 27.4305 48.4323C27.912 49.4377 28.3979 50.4186 28.8021 51.1805C29.0038 51.5607 29.1881 51.892 29.3432 52.1464C29.4205 52.2733 29.494 52.3868 29.5614 52.48C29.6201 52.5611 29.6983 52.6614 29.7884 52.7356C30.315 53.1727 30.8475 53.8213 31.44 54.543C31.5204 54.641 31.602 54.7403 31.6848 54.8406C32.3537 55.6513 33.0987 56.5194 33.9282 57.0872L33.9294 57.088C35.0487 57.8495 37.2471 59.3459 38.9488 60.5905L39.0839 60.6893L39.2512 60.6869C39.3933 60.6848 39.5273 60.6441 39.6333 60.6029C39.7457 60.5591 39.8631 60.5001 39.9809 60.4331C40.2166 60.299 40.4878 60.1136 40.7771 59.8975C41.3575 59.4638 42.0487 58.8775 42.7397 58.2519C44.1139 57.0079 45.5414 55.5594 46.13 54.7856C46.6057 54.1602 47.5818 53.2954 48.6031 52.3905C48.7001 52.3045 48.7975 52.2182 48.895 52.1317C49.4434 51.6449 49.9845 51.158 50.4218 50.7183C50.8425 50.2953 51.2264 49.8595 51.3968 49.4785L51.3972 49.4775C51.5738 49.0802 51.6512 48.6366 51.6934 48.2159C51.7227 47.9249 51.7371 47.6156 51.7505 47.3263C51.7563 47.2033 51.7618 47.0839 51.7683 46.9712C51.7911 46.5725 51.8255 46.2359 51.9023 45.964C51.9774 45.6985 52.0795 45.5439 52.2036 45.4531M8.50188 61.7968L65.5605 22.9198C65.6158 22.9385 65.6859 22.9587 65.7783 22.9853C65.7946 22.99 65.8116 22.9949 65.8293 23C65.9809 23.0438 66.1898 23.1056 66.372 23.2037C66.5544 23.302 66.7942 23.4817 66.8779 23.8018L66.8793 23.8072C67.194 25.0672 67.286 25.9569 67.1537 26.58C67.0845 26.9061 66.9496 27.181 66.7354 27.3915C66.5228 27.6004 66.2683 27.7102 66.0213 27.7697C65.7797 27.8278 65.5243 27.8427 65.2889 27.8472C65.1757 27.8494 65.0597 27.8492 64.9476 27.849L64.9296 27.8489C64.81 27.8487 64.6939 27.8486 64.5775 27.8511C64.1322 27.8606 63.7458 27.9084 63.4151 28.0806C63.3975 28.1039 63.374 28.1365 63.3445 28.1796C63.2676 28.2916 63.1657 28.4506 63.0454 28.6459C62.8056 29.0351 62.5041 29.549 62.2039 30.0757C61.904 30.6021 61.6076 31.1373 61.3779 31.5683C61.2629 31.784 61.1659 31.9712 61.0941 32.1168C61.0581 32.1897 61.0297 32.2497 61.0089 32.2962C60.9882 32.3425 60.9806 32.3634 60.9795 32.3665C60.9464 32.4773 60.9468 32.534 60.9493 32.5557C60.9594 32.5627 60.9799 32.5742 61.0175 32.5879C61.1134 32.6229 61.2568 32.6482 61.459 32.6653C61.5895 32.6763 61.718 32.6824 61.857 32.689C61.9373 32.6928 62.0211 32.6967 62.1107 32.7019C62.3382 32.715 62.5902 32.7358 62.8232 32.7884C63.0517 32.84 63.3159 32.9335 63.5249 33.1305C63.7535 33.346 63.8654 33.6365 63.8601 33.9695C63.8552 34.2805 63.7495 34.6235 63.5706 34.9987L63.5693 35.0016C63.3734 35.4057 63.0216 35.6472 62.6879 35.8089C62.3966 35.95 62.0604 36.0568 61.7626 36.1513C61.7235 36.1637 61.6851 36.1759 61.6476 36.188C61.3019 36.2987 61.0118 36.4003 60.7831 36.5346C60.5643 36.663 60.4407 36.7989 60.3809 36.9632C60.313 37.1552 60.268 37.4366 60.2487 37.8114C60.2297 38.1812 60.2371 38.6112 60.258 39.0853C60.2741 39.4499 60.299 39.8491 60.3247 40.2616C60.3639 40.8892 60.405 41.5476 60.4199 42.162C60.4446 43.1878 60.4037 44.2231 60.1362 45.0183C60.0004 45.422 59.795 45.7989 59.4778 46.0782C59.1513 46.3657 58.7409 46.519 58.2607 46.5255M28.5552 110.564C29.5153 111.093 34.6315 111.905 35.8152 111.853M28.5552 110.564C27.8844 110.19 19.296 101.733 19.1644 101.088C19.0211 100.352 20.1286 98.4837 21.2565 96.5809L35.8152 111.853M58.2607 46.5255C57.8579 46.533 57.2883 46.4231 56.7032 46.2892C56.3337 46.2046 55.9262 46.1024 55.5164 45.9996C55.265 45.9365 55.0127 45.8732 54.7678 45.8137C54.1094 45.6535 53.4906 45.5167 52.9931 45.4538C52.7439 45.4224 52.5433 45.412 52.3931 45.4214C52.2514 45.4303 52.2038 45.4542 52.2033 45.4534C52.2033 45.4534 52.2034 45.4533 52.2036 45.4531M58.2607 46.5255C58.2603 46.5255 58.2599 46.5256 58.2594 46.5256L58.2529 46.0256L58.2626 46.5255C58.262 46.5255 58.2614 46.5255 58.2607 46.5255ZM52.2036 45.4531C52.2041 45.4527 52.205 45.4521 52.2063 45.4511L52.2036 45.4531ZM34.2106 56.6746C33.3554 56.0892 32.5747 55.1377 31.8268 54.226C31.2405 53.5113 30.6742 52.8211 30.1078 52.3509C29.516 51.8739 26.2272 44.7877 25.7143 43.3953L34.2106 56.6746ZM34.2106 56.6746C35.3286 57.4352 37.5342 58.9364 39.244 60.187L34.2106 56.6746ZM35.8152 111.853C36.8601 111.812 38.2304 111.111 39.6569 110.382C42.2346 109.064 44.9955 107.652 46.3502 109.868C46.9566 110.848 46.8368 114.343 46.7249 117.607C46.6499 119.794 46.5785 121.877 46.7316 123.031C46.9478 124.63 47.5939 126.184 48.2549 127.773C49.0007 129.567 49.7656 131.407 49.9539 133.409L35.8152 111.853ZM60.9407 32.5486C60.9409 32.5487 60.9417 32.5494 60.9429 32.5509C60.9411 32.5494 60.9405 32.5485 60.9407 32.5486ZM65.456 22.8774C65.4482 22.8733 65.4451 22.8711 65.4455 22.871C65.4459 22.8709 65.4498 22.873 65.456 22.8774ZM19.6293 100.912C19.6292 100.912 19.6304 100.914 19.6323 100.918C19.6303 100.914 19.6294 100.913 19.6293 100.912Z" fill="#D994C5" stroke="#007DC0"/>
</svg>
