<svg width="88" height="110" viewBox="0 0 88 110" fill="none" xmlns="http://www.w3.org/2000/svg">
<path d="M46.0168 2.52485C44.8456 2.78855 43.3147 3.47492 42.1988 4.43918C41.5861 4.96867 41.1281 5.55663 40.9057 6.17193C40.6896 6.76966 40.6857 7.41747 41.018 8.12237C43.2697 12.4742 44.3605 16.758 44.2393 20.993L44.232 21.2509L44.0175 21.3943C38.615 25.0084 33.0489 28.9904 27.9462 32.6409L27.5507 32.9239L27.1023 33.2447L26.8267 32.7671C26.158 31.6084 25.2595 30.4636 24.1149 29.3446C24.0467 29.3747 23.9649 29.4132 23.8699 29.4605C23.5732 29.6083 23.1756 29.8275 22.7158 30.1021C21.7965 30.6511 20.6505 31.4084 19.5985 32.2283C18.5375 33.0552 17.6089 33.9178 17.0901 34.6742C16.8294 35.0543 16.7038 35.3628 16.6814 35.5949C16.6622 35.7943 16.7148 35.9505 16.8845 36.1001L17.3322 36.4948L16.8651 36.8664L16.166 37.4226C16.2704 38.8057 16.2601 39.9818 16.1272 40.9423C15.9871 41.9559 15.7034 42.7825 15.2224 43.3507C14.7185 43.9459 14.0375 44.2106 13.2419 44.1574C12.5039 44.1081 11.6784 43.788 10.78 43.255L9.8087 43.1729C9.11089 46.1812 7.52985 48.1273 4.99971 48.8552L4.90333 48.8829L4.80372 48.8713C4.02825 48.7811 3.46541 48.6956 2.93226 48.4921C2.53324 48.3398 2.16776 48.1281 1.74647 47.8285C1.11803 49.143 1.21114 50.5783 1.83142 52.0649C2.5333 53.7471 3.89851 55.455 5.57894 57.0078C7.25459 58.5563 9.21542 59.9246 11.0696 60.9343C12.9359 61.9506 14.6458 62.577 15.8251 62.6901C16.5989 62.7636 17.483 62.6568 18.4528 62.4479C19.3174 62.2615 20.2206 62.001 21.1495 61.733C21.2618 61.7006 21.3745 61.6681 21.4875 61.6356C23.5383 61.0461 25.7452 60.4409 27.6109 60.7747L27.611 60.7747C28.3686 60.9105 29.0692 61.3404 29.711 61.9382C30.3546 62.5375 30.9667 63.3311 31.5483 64.2464C32.7112 66.0764 33.7931 68.459 34.7786 70.9245C35.6421 73.0849 36.4394 75.3293 37.156 77.3464C37.2583 77.6344 37.3589 77.9176 37.4579 78.1954C38.2563 80.4364 38.9352 82.2881 39.488 83.353L39.5356 83.4448L39.5429 83.548C39.6206 84.6424 39.2932 85.7022 38.829 86.7366C38.5252 87.4133 38.1428 88.1188 37.7564 88.8316C37.5603 89.1934 37.3631 89.5571 37.1748 89.9198C36.0341 92.1162 35.088 94.498 35.7432 97.4317C35.7437 97.4332 35.7447 97.4371 35.7468 97.4435C35.7499 97.4528 35.7543 97.4655 35.7606 97.4818C35.7733 97.5148 35.7914 97.5573 35.8157 97.61C35.8644 97.7157 35.9324 97.8501 36.0191 98.0114C36.1922 98.3337 36.4308 98.7465 36.7167 99.2213C37.288 100.17 38.0387 101.35 38.8104 102.519C39.5822 103.687 40.3718 104.839 41.0206 105.731C41.3454 106.177 41.6316 106.554 41.8607 106.833C41.9755 106.973 42.0721 107.084 42.1496 107.166C42.2324 107.253 42.2706 107.282 42.2725 107.283L42.2726 107.283L42.2742 107.284C42.6673 107.538 43.5496 107.882 44.7336 108.229C45.8976 108.571 47.2984 108.9 48.6869 109.138C50.0789 109.376 51.4394 109.519 52.5287 109.498C53.0742 109.488 53.5325 109.436 53.8848 109.344C54.2475 109.249 54.4358 109.127 54.519 109.025L54.5201 109.024C54.9368 108.519 55.1422 107.938 55.3107 107.307C55.3438 107.184 55.376 107.054 55.409 106.921C55.535 106.416 55.6727 105.863 55.9124 105.395C56.2416 104.751 56.7694 104.232 57.6873 103.967C58.4505 103.746 59.4669 103.705 60.8425 103.87C60.8165 103.808 60.7854 103.75 60.75 103.696C60.6206 103.496 60.4156 103.314 60.1266 103.151C59.537 102.819 58.692 102.617 57.7511 102.478C57.158 102.391 56.5734 102.334 56.0162 102.28C55.682 102.247 55.3576 102.215 55.0471 102.179C54.6491 102.132 54.2745 102.076 53.9688 101.996C53.8154 101.955 53.6646 101.905 53.5301 101.84C53.3992 101.776 53.2529 101.682 53.1422 101.538L53.0103 101.368L53.0442 101.154C53.1399 100.551 53.5012 100.113 53.919 99.7903C54.3303 99.4728 54.8349 99.2371 55.2937 99.0419C55.4391 98.9801 55.5781 98.9229 55.7106 98.8684C56.0197 98.7412 56.2934 98.6287 56.5307 98.505C56.8918 98.3169 56.9785 98.1931 56.9919 98.1487L56.9926 98.1462C57.0033 98.1117 57.014 98.0014 56.9505 97.7724C56.8903 97.5552 56.7793 97.2869 56.6218 96.9723C56.3068 96.3429 55.8425 95.5992 55.3455 94.8182C55.2876 94.7273 55.2293 94.6358 55.1707 94.5441C54.7336 93.8586 54.2859 93.1566 53.9304 92.5198C53.7283 92.1577 53.5498 91.806 53.4173 91.4808C53.2875 91.1623 53.1888 90.8385 53.1705 90.5386C53.1705 90.5378 53.1705 90.537 53.1704 90.5362L53.6695 90.5065C53.6169 89.7587 56.4446 84.7823 57.2601 84.5503L46.0168 2.52485ZM46.0168 2.52485L46.1016 2.69088L46.56 2.41811C46.8022 2.27393 47.0935 2.16639 47.4467 2.03601C47.5592 1.99448 47.6779 1.95064 47.8033 1.90257C47.9638 1.84106 48.1324 1.7733 48.302 1.69497M46.0168 2.52485L48.302 1.69497M48.302 1.69497C48.3226 1.87553 48.3601 2.05453 48.4097 2.22823C48.574 2.8038 48.8851 3.37844 49.253 3.88085C49.6214 4.38399 50.0634 4.83748 50.5103 5.16275C50.9352 5.47195 51.4534 5.73 51.9533 5.68359L51.9559 5.68334C52.1583 5.66349 52.2904 5.54137 52.3386 5.49422C52.4014 5.43281 52.4555 5.36152 52.4978 5.30184C52.5562 5.21948 52.6256 5.11058 52.6964 4.99944C52.7257 4.9534 52.7553 4.90698 52.7844 4.8619C52.9984 4.53086 53.275 4.13374 53.6581 3.77765C54.0379 3.42461 54.5201 3.11423 55.1473 2.95662C55.7653 2.8013 56.5547 2.78661 57.5675 3.06359C57.5767 3.08091 57.5904 3.11073 57.6074 3.15912C57.6349 3.23763 57.6607 3.33435 57.6934 3.46347C57.6974 3.47933 57.7015 3.49564 57.7057 3.51233C57.734 3.62477 57.7668 3.75504 57.8062 3.88924C57.9946 4.5299 58.3564 5.33355 59.3902 5.85185L59.392 5.85274C60.5827 6.44371 61.5811 6.31215 62.4585 6.10778C62.6145 6.07144 62.7633 6.03431 62.9067 5.99851C63.5893 5.82814 64.1515 5.68783 64.7982 5.80642C65.1605 5.87284 65.681 6.1143 66.3299 6.49768C66.9652 6.87305 67.6684 7.35028 68.3875 7.84176L68.5193 7.93188C69.1897 8.39025 69.8702 8.85551 70.4945 9.23678C71.1482 9.63594 71.7938 9.97727 72.3344 10.1069L72.3364 10.1074C73.2635 10.3255 74.2551 10.0755 75.1185 9.85792C75.1535 9.84909 75.1883 9.84032 75.2229 9.83163C75.9878 9.63953 76.6734 9.4788 77.3119 9.51681C77.2516 9.92938 77.1719 10.3466 77.0869 10.7737C77.0698 10.8596 77.0524 10.9459 77.035 11.0327C76.9335 11.5382 76.829 12.0585 76.752 12.5787C76.5706 13.8034 76.5297 15.0926 77.0349 16.4015L77.0574 16.4597L77.0935 16.5106C77.4353 16.993 78.0617 17.1928 78.6471 17.2898C79.2627 17.3919 79.993 17.404 80.7142 17.3869C81.1761 17.3759 81.6558 17.3521 82.1095 17.3296C82.3607 17.3171 82.6039 17.305 82.8318 17.2958C83.2887 17.2772 83.6815 17.27 83.9929 17.2852C84.0052 17.8198 83.8413 18.3934 83.6481 19.0624L83.6419 19.0839C83.4229 19.8422 83.1599 20.7525 83.3973 21.6369L48.302 1.69497ZM24.304 29.2721C24.3037 29.2723 24.3017 29.2728 24.298 29.2735C24.3024 29.2723 24.3043 29.272 24.304 29.2721ZM57.5571 3.04602C57.5553 3.04408 57.5544 3.04285 57.5545 3.04272C57.5545 3.04258 57.5554 3.04355 57.5571 3.04602Z" fill="#9DE290" stroke="#007DC0"/>
</svg>
