<svg width="182" height="200" viewBox="0 0 182 200" fill="none" xmlns="http://www.w3.org/2000/svg">
<path id="Vector" d="M36.4596 6.23892L36.2581 5.91751C34.8573 3.68322 33.3265 2.43135 31.5338 1.81909C29.7229 1.20062 27.5829 1.21272 24.9228 1.6335L24.6424 1.67785L24.4606 1.45984C24.4261 1.41846 24.3561 1.36777 24.1916 1.34891C24.0215 1.32941 23.7878 1.34985 23.4935 1.42317C22.9063 1.56947 22.1883 1.89778 21.4806 2.31618C20.7765 2.73247 20.1127 3.22008 19.6334 3.66262C19.3928 3.88476 19.2106 4.08462 19.0934 4.24876C19.0703 4.28112 19.0514 4.30978 19.036 4.33489C20.5499 5.82119 21.8208 7.47716 22.8354 9.30245L22.8661 9.3577L22.8821 9.41885L31.7068 43.1611L32.0711 43.37C33.3583 43.1834 34.4062 43.1649 35.2392 43.298C36.1097 43.4371 36.7838 43.7489 37.2308 44.2481C38.1425 45.2664 37.8778 46.7542 37.2384 48.1241C36.5776 49.5397 35.4149 51.068 34.1082 52.4053C32.8164 53.7273 31.351 54.8962 30.0313 55.6009C29.3631 56.164 28.5833 56.9743 28.0711 57.837C27.579 58.666 27.3931 59.4363 27.6248 60.0753C36.3845 64.3302 41.5082 69.8192 47.3264 77.3591C49.8052 78.052 51.7651 79.0976 53.1691 80.5223C54.6097 81.9841 55.4364 83.8166 55.6578 85.9946C56.4424 92.9143 58.0501 99.5109 60.467 105.76L60.5179 105.892L60.4925 106.031C60.4654 106.179 60.39 106.29 60.3336 106.36C60.2732 106.434 60.2018 106.5 60.1319 106.556C59.9921 106.669 59.8107 106.783 59.6075 106.897C59.1979 107.127 58.6349 107.391 57.9768 107.672C56.6568 108.236 54.9032 108.893 53.1074 109.526C51.31 110.159 49.4624 110.772 47.9512 111.247C46.4543 111.718 45.2532 112.066 44.7704 112.156L44.3308 112.238L44.2001 111.811C43.7729 110.413 43.0236 109.725 41.9882 109.559C40.8832 109.381 39.3326 109.773 37.2881 110.88L36.886 111.097L36.6333 110.716C35.7944 109.452 34.9775 108.803 34.2099 108.615C33.4695 108.433 32.645 108.65 31.7003 109.433L31.6859 109.445L31.6705 109.455C25.4945 113.834 18.7727 116.95 11.4954 118.8C12.2873 121.212 12.9074 123.536 13.3659 125.771L13.4952 126.402L12.8524 126.371C9.848 126.229 6.27383 127.549 3.84396 129.474C4.17784 130.377 4.40166 131.186 4.50765 131.895C4.62618 132.688 4.60273 133.393 4.38889 133.976C4.16819 134.578 3.75487 135.021 3.16967 135.279C2.65158 135.508 2.02408 135.583 1.31495 135.539C0.975483 135.827 0.844841 136.087 0.826653 136.279C0.810219 136.453 0.875912 136.695 1.21272 136.979C9.05446 138.424 12.5512 146.015 14.0608 152.68L14.1039 152.871L14.0069 153.04C12.9109 154.95 12.5164 156.55 12.7177 157.866C12.9156 159.16 13.7047 160.274 15.1916 161.197L15.4767 161.374L15.4209 161.705C14.8075 165.345 15.0598 168.449 16.1361 171.043C17.2104 173.633 19.1228 175.756 21.9043 177.411L22.1372 177.549L22.1483 177.82C22.2352 179.95 23.2785 182.449 24.8721 184.23C26.4655 186.012 28.5075 186.977 30.615 186.323L30.7158 186.292L30.8208 186.304C31.8761 186.426 32.7906 186.716 33.531 187.204C35.1088 184.725 36.9805 183.376 38.8984 183.548C40.8878 183.728 42.5918 185.516 43.801 188.541C45.7659 189.362 46.7489 191.478 46.9589 194.55C47.0604 194.722 47.2478 194.951 47.5326 195.225C47.8549 195.536 48.2738 195.877 48.7633 196.227C49.7424 196.928 50.977 197.644 52.2263 198.198C53.4833 198.755 54.7159 199.129 55.7002 199.181C56.6496 199.23 57.2196 198.984 57.4882 198.491C57.6621 196.948 57.9312 195.645 58.3026 194.594C58.6799 193.527 59.1743 192.686 59.8135 192.123C60.467 191.549 61.2458 191.29 62.1191 191.353C62.9162 191.41 63.7676 191.734 64.6652 192.279C67.5762 191.404 69.7079 189.678 71.081 187.107L71.1684 186.943L71.3416 186.876C74.1918 185.773 76.3854 184.131 78.5647 182.008L78.7826 181.795L79.0714 181.891L80.5051 182.368L80.6334 182.411L80.7227 182.512C82.5954 184.642 84.1357 185.937 85.8538 186.531C87.5607 187.122 89.5229 187.048 92.2968 186.255L92.8775 186.089L92.9321 186.691C92.9536 186.928 93.0089 187.066 93.063 187.142C93.1088 187.207 93.1707 187.254 93.283 187.28L93.6654 187.368L93.6706 187.761C93.6852 188.862 93.7557 189.711 93.8668 190.348C93.9795 190.994 94.1272 191.38 94.2675 191.589C94.3934 191.777 94.4739 191.775 94.511 191.773C94.6005 191.768 94.7752 191.704 95.0383 191.474C95.555 191.023 96.1568 190.162 96.7516 189.1C97.3386 188.053 97.8919 186.859 98.3229 185.789L98.3778 185.652L98.4978 185.567L122.796 168.364C119.921 163.404 118.81 158.333 119.479 153.152L119.518 152.85L119.804 152.746C124.457 151.059 129.072 149.311 133.605 147.256L133.704 147.211L133.812 147.211C136.506 147.218 138.893 147.134 140.962 146.452C143.003 145.779 144.752 144.517 146.15 142.11L147.017 142.607C146.089 144.251 145.64 145.285 145.516 147.063L145.516 147.063C145.482 147.533 145.541 149.244 145.673 151.605C145.805 153.945 146.006 156.879 146.25 159.759C146.494 162.64 146.779 165.46 147.078 167.575C147.228 168.635 147.38 169.504 147.528 170.112C147.599 170.402 147.665 170.615 147.723 170.755C149.528 170.596 151.375 170.672 153.272 170.96C159.664 166.463 165.913 161.751 172.021 156.849L172.117 156.771L172.239 156.748C175.095 156.193 177.952 155.649 180.773 155.118L180.791 154.795C180.492 154.559 180.078 154.278 179.591 153.964C179.257 153.749 178.905 153.528 178.543 153.301C178.256 153.121 177.963 152.937 177.667 152.748C177.01 152.33 176.36 151.901 175.831 151.497C175.323 151.109 174.851 150.691 174.63 150.283L174.629 150.281C174.226 149.531 174.014 148.563 173.889 147.553C173.763 146.536 173.721 145.427 173.687 144.374C173.684 144.283 173.681 144.192 173.679 144.102C173.648 143.14 173.62 142.24 173.539 141.477C173.494 141.062 173.436 140.702 173.357 140.405C173.277 140.104 173.185 139.899 173.09 139.771C173.024 139.681 172.891 139.597 172.629 139.552C172.368 139.507 172.049 139.513 171.703 139.543C171.532 139.557 171.363 139.577 171.198 139.596C171.035 139.615 170.871 139.635 170.725 139.649C170.581 139.661 170.429 139.67 170.293 139.661C170.189 139.654 169.952 139.63 169.774 139.456C169.692 139.375 169.649 139.282 169.629 139.237C169.605 139.181 169.586 139.122 169.571 139.068C169.54 138.957 169.513 138.822 169.488 138.674C169.438 138.376 169.39 137.98 169.346 137.523C169.256 136.606 169.177 135.412 169.12 134.196C169.063 132.98 169.028 131.735 169.027 130.715C169.027 130.205 169.035 129.748 169.053 129.376C169.071 129.019 169.1 128.699 169.154 128.492L169.154 128.492C169.288 127.978 169.626 127.364 170.063 126.707C170.508 126.039 171.084 125.284 171.736 124.478C172.616 123.388 173.651 122.186 174.699 120.967C175.197 120.388 175.699 119.805 176.188 119.229C177.718 117.428 179.134 115.691 180.04 114.275C180.495 113.563 180.8 112.964 180.936 112.499C181.01 112.244 181.023 112.071 181.008 111.952C180.577 111.97 180.18 111.838 179.832 111.646C179.384 111.4 178.981 111.036 178.635 110.7C178.517 110.585 178.408 110.475 178.304 110.372C178.086 110.153 177.894 109.961 177.705 109.804C177.572 109.692 177.465 109.621 177.382 109.581C177.343 109.562 177.315 109.554 177.297 109.551C177.289 109.549 177.283 109.548 177.28 109.548L177.277 109.548L177.276 109.548L177.271 109.549C176.863 109.607 176.072 109.611 175.135 109.602C174.778 109.599 174.396 109.594 173.995 109.588C173.316 109.579 172.585 109.569 171.838 109.567C170.653 109.563 169.449 109.577 168.396 109.642C167.329 109.707 166.466 109.822 165.939 109.999L165.938 109.999C165.701 110.078 165.301 110.267 164.751 110.559C164.211 110.847 163.554 111.22 162.817 111.649C161.946 112.156 160.974 112.736 159.955 113.343C159.244 113.767 158.51 114.205 157.773 114.64C155.99 115.693 154.197 116.728 152.708 117.498C151.964 117.883 151.286 118.206 150.719 118.433C150.174 118.651 149.659 118.811 149.269 118.804L149.268 118.804C147.834 118.776 146.921 117.703 146.349 116.349C145.774 114.985 145.469 113.177 145.311 111.323C145.056 108.324 145.18 105.068 145.254 103.126C145.272 102.664 145.287 102.277 145.293 101.985C145.412 96.2261 145.834 90.4087 146.267 84.5989C146.287 84.3418 146.306 84.0847 146.325 83.8276C146.741 78.2713 147.155 72.7245 147.318 67.2233L147.319 67.2211C147.396 64.9575 147.404 62.8487 146.716 60.7671C146.294 60.4955 145.539 60.0567 144.673 59.6509C143.693 59.1918 142.621 58.799 141.747 58.711L141.747 58.7109C141.138 58.6488 140.055 58.6612 138.82 58.6752C138.461 58.6793 138.089 58.6835 137.712 58.6861C136.89 58.6917 136.055 58.689 135.311 58.6568C134.576 58.625 133.897 58.5634 133.402 58.4411L133.402 58.441C132.858 58.3066 132.363 58.4472 131.719 58.6304C131.682 58.6409 131.644 58.6516 131.606 58.6624C130.942 58.8502 130.129 59.0566 129.226 58.6752C129.154 58.6452 129.091 58.6032 129.053 58.576C129.007 58.5433 128.957 58.5046 128.908 58.4634C128.808 58.3806 128.687 58.272 128.551 58.1446C128.277 57.889 127.924 57.5402 127.52 57.1303C126.711 56.3096 125.683 55.2303 124.655 54.1296C123.627 53.0286 122.595 51.9037 121.776 50.991C120.969 50.0923 120.34 49.3683 120.144 49.0895L120.143 49.0878C119.317 47.9005 118.365 45.5095 117.753 43.1623C117.445 41.9805 117.217 40.7856 117.135 39.7327C117.054 38.7014 117.107 37.7258 117.431 37.0378C117.531 36.8252 117.723 36.5736 117.94 36.3186C118.167 36.0523 118.457 35.7429 118.786 35.4072C119.445 34.7352 120.283 33.9384 121.145 33.1363C121.781 32.5443 122.428 31.9517 123.028 31.4017C124.067 30.4486 124.967 29.6236 125.432 29.1516C125.859 28.7152 126.206 28.1615 126.566 27.571C126.586 27.5394 126.605 27.5076 126.625 27.4756C126.918 26.9935 127.231 26.4798 127.596 26.065C127.596 25.792 127.557 25.6108 127.505 25.4868C127.447 25.3485 127.362 25.2525 127.237 25.1679C127.099 25.0751 126.917 24.9984 126.662 24.9093C126.596 24.8863 126.524 24.862 126.447 24.8363C126.249 24.7697 126.022 24.6933 125.799 24.6032C123.219 23.5698 120.531 23.6646 117.754 24.015C117.053 24.1034 116.343 24.2092 115.627 24.3157C113.547 24.6253 111.424 24.9413 109.367 24.8581M36.4596 6.23892L109.387 24.3585M36.4596 6.23892C36.7854 6.84218 37.0318 7.50994 37.2922 8.21536C37.3694 8.42443 37.4478 8.6368 37.5298 8.85178C37.9295 9.89934 38.4131 10.9929 39.2871 11.8065L39.2878 11.8071C39.65 12.1431 40.2886 12.521 41.0175 12.8874C41.7614 13.2614 42.6479 13.647 43.5439 13.991C44.4396 14.3349 45.3536 14.6404 46.1527 14.8518C46.9307 15.0577 47.6645 15.1925 48.1675 15.1488L48.1709 15.1485C49.21 15.051 50.511 14.4804 51.8866 13.7276C53.2795 12.9652 54.8205 11.9743 56.3546 10.9729C56.5614 10.8379 56.768 10.7027 56.9743 10.5678C58.3048 9.69751 59.6172 8.83908 60.8305 8.11885C62.2413 7.28134 63.4691 6.66125 64.4007 6.41953L64.4011 6.41943C65.9009 6.02902 67.4918 6.08 69.1243 6.17366C69.2686 6.18194 69.4135 6.19058 69.5587 6.19924C71.0257 6.28677 72.5315 6.37662 73.9156 6.1176L73.9173 6.11729C74.5039 6.00549 75.0851 5.66335 75.6241 5.2634C76.1705 4.85794 76.7254 4.35276 77.2554 3.86289C77.3111 3.81144 77.3665 3.76019 77.4216 3.70919C77.8994 3.26692 78.3554 2.84476 78.7915 2.49565C79.2855 2.10007 79.6998 1.84385 80.0349 1.75003C80.2892 1.67881 80.9793 1.57304 81.9367 1.45863C82.8757 1.34643 84.0289 1.23056 85.1768 1.13345C86.3251 1.0363 87.4631 0.958363 88.3727 0.921499C88.8279 0.903046 89.2208 0.895109 89.5267 0.899721C89.6858 0.902121 89.8085 0.907947 89.8985 0.914972M36.4596 6.23892L89.8985 0.914972M109.367 24.8581L109.387 24.3585M109.367 24.8581C109.367 24.8581 109.367 24.8581 109.367 24.8581L109.387 24.3585M109.367 24.8581C109.162 24.8499 108.782 24.7879 108.313 24.6996C107.829 24.6084 107.212 24.4811 106.509 24.3291C105.102 24.0252 103.344 23.6206 101.608 23.2042C99.872 22.7879 98.1549 22.3589 96.8316 22.0062C96.1705 21.8299 95.6037 21.6717 95.1807 21.5429C94.9697 21.4786 94.7893 21.4202 94.6488 21.3693C94.5329 21.3273 94.3812 21.2694 94.2778 21.1968M109.387 24.3585C108.098 24.307 95.183 21.2257 94.5648 20.7874M94.2778 21.1968L94.5648 20.7874M94.2778 21.1968C94.0676 21.0494 93.9013 20.8369 93.7658 20.6093C93.6279 20.3777 93.5051 20.1015 93.3935 19.7961C93.1705 19.1858 92.9756 18.4114 92.7989 17.5375C92.4454 15.7881 92.1514 13.5688 91.8626 11.3189C91.8381 11.1284 91.8137 10.9376 91.7893 10.7469C91.5241 8.67573 91.2589 6.60477 90.9503 4.84151C90.7818 3.87927 90.6022 3.0187 90.4053 2.30661C90.2406 1.71114 90.0706 1.24476 89.8985 0.914972M94.2778 21.1968C94.277 21.1963 94.2763 21.1958 94.2756 21.1952L94.5648 20.7874M94.5648 20.7874L89.8985 0.914972M89.8985 0.914972C89.9933 0.922361 90.0519 0.931077 90.0791 0.938527L90.2114 0.456358L89.7894 0.724541C89.8259 0.781891 89.8622 0.84539 89.8985 0.914972ZM146.582 142.361L147.014 142.612C146.533 143.441 146.009 144.15 145.446 144.755C145.705 143.983 146.078 143.252 146.582 142.361ZM146.582 142.361L146.147 142.115C145.655 142.985 145.278 143.719 145.008 144.491C145.573 143.897 146.099 143.193 146.582 142.361ZM92.4341 186.736C92.4511 186.923 92.4873 187.086 92.5435 187.225C92.5528 187.222 92.5621 187.22 92.5714 187.217L92.4341 186.736ZM92.4341 186.736L91.9362 186.781C91.9389 186.811 91.942 186.841 91.9456 186.87C92.106 186.828 92.2688 186.783 92.4341 186.736ZM147.503 171.278L147.626 170.794C147.723 170.819 147.774 170.87 147.787 170.885L147.503 171.278ZM33.9335 187.503C33.845 187.643 33.7571 187.787 33.6698 187.935C33.5445 187.826 33.4109 187.724 33.2692 187.63L33.9335 187.503Z" fill="#94DCE3" stroke="#007DC0"/>
</svg>
